  0
SECTION
  2
HEADER
  9
$ACADVER
  1
AC1015
  9
$ACADMAINTVER
 70
     6
  9
$DWGCODEPAGE
  3
ANSI_1252
  9
$INSBASE
 10
0.0
 20
0.0
 30
0.0
  9
$EXTMIN
 10
-0.59
 20
-0.59
 30
0.0
  9
$EXTMAX
 10
0.59
 20
0.59
 30
0.0
  9
$LIMMIN
 10
0.0
 20
0.0
  9
$LIMMAX
 10
12.0
 20
9.0
  9
$ORTHOMODE
 70
     0
  9
$REGENMODE
 70
     1
  9
$FILLMODE
 70
     1
  9
$QTEXTMODE
 70
     0
  9
$MIRRTEXT
 70
     1
  9
$LTSCALE
 40
1.0
  9
$ATTMODE
 70
     1
  9
$TEXTSIZE
 40
0.1377952756
  9
$TRACEWID
 40
0.05
  9
$TEXTSTYLE
  7
Standard
  9
$CLAYER
  8
0
  9
$CELTYPE
  6
ByLayer
  9
$CECOLOR
 62
   256
  9
$CELTSCALE
 40
1.0
  9
$DISPSILH
 70
     0
  9
$DIMSCALE
 40
1.0
  9
$DIMASZ
 40
0.14
  9
$DIMEXO
 40
0.0393700787
  9
$DIMDLI
 40
0.38
  9
$DIMRND
 40
0.0
  9
$DIMDLE
 40
0.0
  9
$DIMEXE
 40
0.0393700787
  9
$DIMTP
 40
0.0
  9
$DIMTM
 40
0.0
  9
$DIMTXT
 40
0.1377952756
  9
$DIMCEN
 40
0.09
  9
$DIMTSZ
 40
0.0
  9
$DIMTOL
 70
     0
  9
$DIMLIM
 70
     0
  9
$DIMTIH
 70
     1
  9
$DIMTOH
 70
     1
  9
$DIMSE1
 70
     0
  9
$DIMSE2
 70
     0
  9
$DIMTAD
 70
     1
  9
$DIMZIN
 70
     0
  9
$DIMBLK
  1

  9
$DIMASO
 70
     1
  9
$DIMSHO
 70
     1
  9
$DIMPOST
  1

  9
$DIMAPOST
  1

  9
$DIMALT
 70
     0
  9
$DIMALTD
 70
     2
  9
$DIMALTF
 40
25.4
  9
$DIMLFAC
 40
1.0
  9
$DIMTOFL
 70
     0
  9
$DIMTVP
 40
0.0
  9
$DIMTIX
 70
     0
  9
$DIMSOXD
 70
     0
  9
$DIMSAH
 70
     0
  9
$DIMBLK1
  1

  9
$DIMBLK2
  1

  9
$DIMSTYLE
  2
Standard
  9
$DIMCLRD
 70
     0
  9
$DIMCLRE
 70
     0
  9
$DIMCLRT
 70
     0
  9
$DIMTFAC
 40
1.0
  9
$DIMGAP
 40
0.06
  9
$DIMJUST
 70
     0
  9
$DIMSD1
 70
     0
  9
$DIMSD2
 70
     0
  9
$DIMTOLJ
 70
     1
  9
$DIMTZIN
 70
     0
  9
$DIMALTZ
 70
     0
  9
$DIMALTTZ
 70
     0
  9
$DIMUPT
 70
     0
  9
$DIMDEC
 70
     2
  9
$DIMTDEC
 70
     2
  9
$DIMALTU
 70
     2
  9
$DIMALTTD
 70
     2
  9
$DIMTXSTY
  7
Standard
  9
$DIMAUNIT
 70
     0
  9
$DIMADEC
 70
     2
  9
$DIMALTRND
 40
0.0
  9
$DIMAZIN
 70
     0
  9
$DIMDSEP
 70
    46
  9
$DIMATFIT
 70
     3
  9
$DIMFRAC
 70
     0
  9
$DIMLDRBLK
  1

  9
$DIMLUNIT
 70
     2
  9
$DIMLWD
 70
    -2
  9
$DIMLWE
 70
    -2
  9
$DIMTMOVE
 70
     0
  9
$LUNITS
 70
     2
  9
$LUPREC
 70
     2
  9
$SKETCHINC
 40
0.1
  9
$FILLETRAD
 40
0.5
  9
$AUNITS
 70
     0
  9
$AUPREC
 70
     2
  9
$MENU
  1
.
  9
$ELEVATION
 40
0.0
  9
$PELEVATION
 40
0.0
  9
$THICKNESS
 40
0.0
  9
$LIMCHECK
 70
     0
  9
$CHAMFERA
 40
0.0
  9
$CHAMFERB
 40
0.0
  9
$CHAMFERC
 40
0.0
  9
$CHAMFERD
 40
0.0
  9
$SKPOLY
 70
     0
  9
$TDCREATE
 40
2458824.956567975
  9
$TDUCREATE
 40
2458825.164901308
  9
$TDUPDATE
 40
2458824.956606458
  9
$TDUUPDATE
 40
2458825.164939792
  9
$TDINDWG
 40
0.0000000116
  9
$TDUSRTIMER
 40
0.0000000116
  9
$USRTIMER
 70
     1
  9
$ANGBASE
 50
0.0
  9
$ANGDIR
 70
     0
  9
$PDMODE
 70
     0
  9
$PDSIZE
 40
-1.0
  9
$PLINEWID
 40
0.0
  9
$SPLFRAME
 70
     0
  9
$SPLINETYPE
 70
     6
  9
$SPLINESEGS
 70
     8
  9
$HANDSEED
  5
106
  9
$SURFTAB1
 70
     6
  9
$SURFTAB2
 70
     6
  9
$SURFTYPE
 70
     6
  9
$SURFU
 70
     6
  9
$SURFV
 70
     6
  9
$UCSBASE
  2

  9
$UCSNAME
  2

  9
$UCSORG
 10
0.0
 20
0.0
 30
0.0
  9
$UCSXDIR
 10
1.0
 20
0.0
 30
0.0
  9
$UCSYDIR
 10
0.0
 20
1.0
 30
0.0
  9
$UCSORTHOREF
  2

  9
$UCSORTHOVIEW
 70
     0
  9
$UCSORGTOP
 10
0.0
 20
0.0
 30
0.0
  9
$UCSORGBOTTOM
 10
0.0
 20
0.0
 30
0.0
  9
$UCSORGLEFT
 10
0.0
 20
0.0
 30
0.0
  9
$UCSORGRIGHT
 10
0.0
 20
0.0
 30
0.0
  9
$UCSORGFRONT
 10
0.0
 20
0.0
 30
0.0
  9
$UCSORGBACK
 10
0.0
 20
0.0
 30
0.0
  9
$PUCSBASE
  2

  9
$PUCSNAME
  2

  9
$PUCSORG
 10
0.0
 20
0.0
 30
0.0
  9
$PUCSXDIR
 10
1.0
 20
0.0
 30
0.0
  9
$PUCSYDIR
 10
0.0
 20
1.0
 30
0.0
  9
$PUCSORTHOREF
  2

  9
$PUCSORTHOVIEW
 70
     0
  9
$PUCSORGTOP
 10
0.0
 20
0.0
 30
0.0
  9
$PUCSORGBOTTOM
 10
0.0
 20
0.0
 30
0.0
  9
$PUCSORGLEFT
 10
0.0
 20
0.0
 30
0.0
  9
$PUCSORGRIGHT
 10
0.0
 20
0.0
 30
0.0
  9
$PUCSORGFRONT
 10
0.0
 20
0.0
 30
0.0
  9
$PUCSORGBACK
 10
0.0
 20
0.0
 30
0.0
  9
$USERI1
 70
     0
  9
$USERI2
 70
     0
  9
$USERI3
 70
     0
  9
$USERI4
 70
     0
  9
$USERI5
 70
     0
  9
$USERR1
 40
0.0
  9
$USERR2
 40
0.0
  9
$USERR3
 40
0.0
  9
$USERR4
 40
0.0
  9
$USERR5
 40
0.0
  9
$WORLDVIEW
 70
     1
  9
$SHADEDGE
 70
     3
  9
$SHADEDIF
 70
    70
  9
$TILEMODE
 70
     1
  9
$MAXACTVP
 70
    64
  9
$PINSBASE
 10
0.0
 20
0.0
 30
0.0
  9
$PLIMCHECK
 70
     0
  9
$PEXTMIN
 10
1.0000000000E+20
 20
1.0000000000E+20
 30
1.0000000000E+20
  9
$PEXTMAX
 10
-1.0000000000E+20
 20
-1.0000000000E+20
 30
-1.0000000000E+20
  9
$PLIMMIN
 10
0.0
 20
0.0
  9
$PLIMMAX
 10
12.0
 20
9.0
  9
$UNITMODE
 70
     0
  9
$VISRETAIN
 70
     1
  9
$PLINEGEN
 70
     0
  9
$PSLTSCALE
 70
     1
  9
$TREEDEPTH
 70
  3020
  9
$CMLSTYLE
  2
Standard
  9
$CMLJUST
 70
     0
  9
$CMLSCALE
 40
1.0
  9
$PROXYGRAPHICS
 70
     1
  9
$MEASUREMENT
 70
     0
  9
$CELWEIGHT
370
    -1
  9
$ENDCAPS
280
     0
  9
$JOINSTYLE
280
     0
  9
$LWDISPLAY
290
     1
  9
$INSUNITS
 70
     1
  9
$HYPERLINKBASE
  1

  9
$STYLESHEET
  1

  9
$XEDIT
290
     1
  9
$CEPSNTYPE
380
     0
  9
$PSTYLEMODE
290
     1
  9
$FINGERPRINTGUID
  2
{7fe39ad6-bfa8-4dda-9ae2-a3901fd9b0d2}
  9
$VERSIONGUID
  2
{FAEB1C32-E019-11D5-929B-00C0DF256EC4}
  9
$EXTNAMES
290
     1
  9
$PSVPSCALE
 40
0.0
  9
$OLESTARTUP
290
     0
  0
ENDSEC
  0
SECTION
  2
CLASSES
  0
CLASS
  1
ACDBDICTIONARYWDFLT
  2
AcDbDictionaryWithDefault
  3
ObjectDBX Classes
 90
        0
280
     0
281
     0
  0
CLASS
  1
VISUALSTYLE
  2
AcDbVisualStyle
  3
ObjectDBX Classes
 90
     4095
280
     0
281
     0
  0
CLASS
  1
MATERIAL
  2
AcDbMaterial
  3
ObjectDBX Classes
 90
     1153
280
     0
281
     0
  0
CLASS
  1
SCALE
  2
AcDbScale
  3
ObjectDBX Classes
 90
     1153
280
     0
281
     0
  0
CLASS
  1
TABLESTYLE
  2
AcDbTableStyle
  3
ObjectDBX Classes
 90
     4095
280
     0
281
     0
  0
CLASS
  1
MLEADERSTYLE
  2
AcDbMLeaderStyle
  3
ACDB_MLEADERSTYLE_CLASS
 90
     4095
280
     0
281
     0
  0
CLASS
  1
SUN
  2
AcDbSun
  3
SCENEOE
 90
     1153
280
     0
281
     0
  0
CLASS
  1
ACDBPLACEHOLDER
  2
AcDbPlaceHolder
  3
ObjectDBX Classes
 90
        0
280
     0
281
     0
  0
CLASS
  1
LAYOUT
  2
AcDbLayout
  3
ObjectDBX Classes
 90
        0
280
     0
281
     0
  0
ENDSEC
  0
SECTION
  2
TABLES
  0
TABLE
  2
VPORT
  5
8
330
0
100
AcDbSymbolTable
 70
     1
  0
VPORT
  5
29
330
8
100
AcDbSymbolTableRecord
100
AcDbViewportTableRecord
  2
*Active
 70
     0
 10
0.0
 20
0.0
 11
1.0
 21
1.0
 12
0.0
 22
0.0
 13
0.0
 23
0.0
 14
0.5
 24
0.5
 15
0.5
 25
0.5
 16
0.0
 26
0.0
 36
1.0
 17
0.0
 27
0.0
 37
0.0
 40
1.2036
 41
1.0
 42
50.0
 43
0.0
 44
0.0
 50
0.0
 51
0.0
 71
     0
 72
   100
 73
     1
 74
     3
 75
     0
 76
     0
 77
     0
 78
     0
281
     0
 65
     1
110
0.0
120
0.0
130
0.0
111
1.0
121
0.0
131
0.0
112
0.0
122
1.0
132
0.0
 79
     0
146
0.0
  0
ENDTAB
  0
TABLE
  2
LTYPE
  5
5
330
0
100
AcDbSymbolTable
 70
     6
  0
LTYPE
  5
14
330
5
100
AcDbSymbolTableRecord
100
AcDbLinetypeTableRecord
  2
ByBlock
 70
     0
  3

 72
    65
 73
     0
 40
0.0
  0
LTYPE
  5
15
330
5
100
AcDbSymbolTableRecord
100
AcDbLinetypeTableRecord
  2
ByLayer
 70
     0
  3

 72
    65
 73
     0
 40
0.0
  0
LTYPE
  5
16
330
5
100
AcDbSymbolTableRecord
100
AcDbLinetypeTableRecord
  2
Continuous
 70
     0
  3
Solid line
 72
    65
 73
     0
 40
0.0
  0
LTYPE
  5
6E
330
5
100
AcDbSymbolTableRecord
100
AcDbLinetypeTableRecord
  2
HIDDEN
 70
     0
  3
Hidden __ __ __ __ __ __ __ __ __ __ __ __ __ __
 72
    65
 73
     2
 40
0.075
 49
0.05
 74
     0
 49
-0.025
 74
     0
  0
LTYPE
  5
6F
330
5
100
AcDbSymbolTableRecord
100
AcDbLinetypeTableRecord
  2
PHANTOM
 70
     0
  3
Phantom ______  __  __  ______  __  __  ______
 72
    65
 73
     6
 40
0.5
 49
0.25
 74
     0
 49
-0.05
 74
     0
 49
0.05
 74
     0
 49
-0.05
 74
     0
 49
0.05
 74
     0
 49
-0.05
 74
     0
  0
LTYPE
  5
70
330
5
100
AcDbSymbolTableRecord
100
AcDbLinetypeTableRecord
  2
CENTER
 70
     0
  3
Center ____ _ ____ _ ____ _ ____ _ ____ _ ____
 72
    65
 73
     4
 40
0.4
 49
0.25
 74
     0
 49
-0.05
 74
     0
 49
0.05
 74
     0
 49
-0.05
 74
     0
  0
LTYPE
  5
71
330
5
100
AcDbSymbolTableRecord
100
AcDbLinetypeTableRecord
  2
CENTERX2
 70
     0
  3
Center (2x) ________  __  ________  __  _____
 72
    65
 73
     4
 40
0.8
 49
0.5
 74
     0
 49
-0.1
 74
     0
 49
0.1
 74
     0
 49
-0.1
 74
     0
  0
LTYPE
  5
72
330
5
100
AcDbSymbolTableRecord
100
AcDbLinetypeTableRecord
  2
DOT2
 70
     0
  3
Dot (.5x) ........................................
 72
    65
 73
     2
 40
0.025
 49
0.0
 74
     0
 49
-0.025
 74
     0
  0
ENDTAB
  0
TABLE
  2
LAYER
  5
2
330
0
100
AcDbSymbolTable
 70
     1
  0
LAYER
  5
10
330
2
100
AcDbSymbolTableRecord
100
AcDbLayerTableRecord
  2
0
 70
     0
 62
     7
  6
Continuous
370
    -3
390
F
  0
ENDTAB
  0
TABLE
  2
STYLE
  5
3
330
0
100
AcDbSymbolTable
 70
     2
  0
STYLE
  5
11
330
3
100
AcDbSymbolTableRecord
100
AcDbTextStyleTableRecord
  2
Standard
 70
     0
 40
0.0
 41
1.0
 50
0.0
 71
     0
 42
0.1377952756
  3
txt
  4

  0
STYLE
  5
103
330
3
100
AcDbSymbolTableRecord
100
AcDbTextStyleTableRecord
  2
SLDTEXTSTYLE0
 70
     0
 40
0.0
 41
0.7
 50
0.0
 71
     0
 42
0.1377952756
  3
TXT
  4

  0
ENDTAB
  0
TABLE
  2
VIEW
  5
6
330
0
100
AcDbSymbolTable
 70
     0
  0
ENDTAB
  0
TABLE
  2
UCS
  5
7
330
0
100
AcDbSymbolTable
 70
     0
  0
ENDTAB
  0
TABLE
  2
APPID
  5
9
330
0
100
AcDbSymbolTable
 70
     1
  0
APPID
  5
12
330
9
100
AcDbSymbolTableRecord
100
AcDbRegAppTableRecord
  2
ACAD
 70
     0
  0
ENDTAB
  0
TABLE
  2
DIMSTYLE
  5
A
330
0
100
AcDbSymbolTable
 70
     1
100
AcDbDimStyleTable
  0
DIMSTYLE
105
27
330
A
100
AcDbSymbolTableRecord
100
AcDbDimStyleTableRecord
  2
Standard
 70
     0
178
     0
340
11
  0
ENDTAB
  0
TABLE
  2
BLOCK_RECORD
  5
1
330
0
100
AcDbSymbolTable
 70
     1
  0
BLOCK_RECORD
  5
1F
330
1
100
AcDbSymbolTableRecord
100
AcDbBlockTableRecord
  2
*Model_Space
340
22
  0
BLOCK_RECORD
  5
1B
330
1
100
AcDbSymbolTableRecord
100
AcDbBlockTableRecord
  2
*Paper_Space
340
1E
  0
BLOCK_RECORD
  5
23
330
1
100
AcDbSymbolTableRecord
100
AcDbBlockTableRecord
  2
*Paper_Space0
340
26
  0
ENDTAB
  0
ENDSEC
  0
SECTION
  2
BLOCKS
  0
BLOCK
  5
20
330
1F
100
AcDbEntity
  8
0
100
AcDbBlockBegin
  2
*Model_Space
 70
     0
 10
0.0
 20
0.0
 30
0.0
  3
*Model_Space
  1

  0
ENDBLK
  5
21
330
1F
100
AcDbEntity
  8
0
100
AcDbBlockEnd
  0
BLOCK
  5
1C
330
1B
100
AcDbEntity
 67
     1
  8
0
100
AcDbBlockBegin
  2
*Paper_Space
 70
     0
 10
0.0
 20
0.0
 30
0.0
  3
*Paper_Space
  1

  0
ENDBLK
  5
1D
330
1B
100
AcDbEntity
 67
     1
  8
0
100
AcDbBlockEnd
  0
BLOCK
  5
24
330
23
100
AcDbEntity
  8
0
100
AcDbBlockBegin
  2
*Paper_Space0
 70
     0
 10
0.0
 20
0.0
 30
0.0
  3
*Paper_Space0
  1

  0
ENDBLK
  5
25
330
23
100
AcDbEntity
  8
0
100
AcDbBlockEnd
  0
ENDSEC
  0
SECTION
  2
ENTITIES
  0
LINE
  5
73
330
1F
100
AcDbEntity
  8
0
  6
Continuous
 62
     7
370
    25
100
AcDbLine
 10
0.0419816406
 20
-0.5732035006
 30
0.0
 11
0.034893033
 21
-0.5738522348
 31
0.0
  0
LINE
  5
74
330
1F
100
AcDbEntity
  8
0
  6
Continuous
 62
     7
370
    25
100
AcDbLine
 10
0.034893033
 20
-0.5738522348
 30
0.0
 11
0.0312537925
 21
-0.5338522348
 31
0.0
  0
LINE
  5
75
330
1F
100
AcDbEntity
  8
0
  6
Continuous
 62
     7
370
    25
100
AcDbLine
 10
0.0312537925
 20
-0.5338522348
 30
0.0
 11
0.0363170836
 21
-0.533393374
 31
0.0
  0
LINE
  5
76
330
1F
100
AcDbEntity
  8
0
  6
Continuous
 62
     7
370
    25
100
AcDbLine
 10
0.0363170836
 20
-0.533393374
 30
0.0
 11
0.0394579064
 21
-0.5678870449
 31
0.0
  0
LINE
  5
77
330
1F
100
AcDbEntity
  8
0
  6
Continuous
 62
     7
370
    25
100
AcDbLine
 10
0.0394579064
 20
-0.5678870449
 30
0.0
 11
0.0482237292
 21
-0.5435357791
 31
0.0
  0
LINE
  5
78
330
1F
100
AcDbEntity
  8
0
  6
Continuous
 62
     7
370
    25
100
AcDbLine
 10
0.0482237292
 20
-0.5435357791
 30
0.0
 11
0.051324995
 21
-0.5432588804
 31
0.0
  0
LINE
  5
79
330
1F
100
AcDbEntity
  8
0
  6
Continuous
 62
     7
370
    25
100
AcDbLine
 10
0.051324995
 20
-0.5432588804
 30
0.0
 11
0.064268033
 21
-0.5656243867
 31
0.0
  0
LINE
  5
7A
330
1F
100
AcDbEntity
  8
0
  6
Continuous
 62
     7
370
    25
100
AcDbLine
 10
0.064268033
 20
-0.5656243867
 30
0.0
 11
0.0611272102
 21
-0.5311307158
 31
0.0
  0
LINE
  5
7B
330
1F
100
AcDbEntity
  8
0
  6
Continuous
 62
     7
370
    25
100
AcDbLine
 10
0.0611272102
 20
-0.5311307158
 30
0.0
 11
0.0661905013
 21
-0.5306718551
 31
0.0
  0
LINE
  5
7C
330
1F
100
AcDbEntity
  8
0
  6
Continuous
 62
     7
370
    25
100
AcDbLine
 10
0.0661905013
 20
-0.5306718551
 30
0.0
 11
0.0698297418
 21
-0.5706718551
 31
0.0
  0
LINE
  5
7D
330
1F
100
AcDbEntity
  8
0
  6
Continuous
 62
     7
370
    25
100
AcDbLine
 10
0.0698297418
 20
-0.5706718551
 30
0.0
 11
0.0625275266
 21
-0.571336412
 31
0.0
  0
LINE
  5
7E
330
1F
100
AcDbEntity
  8
0
  6
Continuous
 62
     7
370
    25
100
AcDbLine
 10
0.0625275266
 20
-0.571336412
 30
0.0
 11
0.0500670836
 21
-0.5501101462
 31
0.0
  0
LINE
  5
7F
330
1F
100
AcDbEntity
  8
0
  6
Continuous
 62
     7
370
    25
100
AcDbLine
 10
0.0500670836
 20
-0.5501101462
 30
0.0
 11
0.0419816406
 21
-0.5732035006
 31
0.0
  0
LINE
  5
80
330
1F
100
AcDbEntity
  8
0
  6
Continuous
 62
     7
370
    25
100
AcDbLine
 10
-0.0199489328
 20
-0.5389025287
 30
0.0
 11
-0.0396957682
 21
-0.5378344907
 31
0.0
  0
LINE
  5
81
330
1F
100
AcDbEntity
  8
0
  6
Continuous
 62
     7
370
    25
100
AcDbLine
 10
-0.0396957682
 20
-0.5378344907
 30
0.0
 11
-0.039450515
 21
-0.5332775287
 31
0.0
  0
LINE
  5
82
330
1F
100
AcDbEntity
  8
0
  6
Continuous
 62
     7
370
    25
100
AcDbLine
 10
-0.039450515
 20
-0.5332775287
 30
0.0
 11
-0.0146403885
 21
-0.5346224654
 31
0.0
  0
LINE
  5
83
330
1F
100
AcDbEntity
  8
0
  6
Continuous
 62
     7
370
    25
100
AcDbLine
 10
-0.0146403885
 20
-0.5346224654
 30
0.0
 11
-0.01680811
 21
-0.5746224654
 31
0.0
  0
LINE
  5
84
330
1F
100
AcDbEntity
  8
0
  6
Continuous
 62
     7
370
    25
100
AcDbLine
 10
-0.01680811
 20
-0.5746224654
 30
0.0
 11
-0.0218714011
 21
-0.5743455667
 31
0.0
  0
LINE
  5
85
330
1F
100
AcDbEntity
  8
0
  6
Continuous
 62
     7
370
    25
100
AcDbLine
 10
-0.0218714011
 20
-0.5743455667
 30
0.0
 11
-0.0199489328
 21
-0.5389025287
 31
0.0
  0
LINE
  5
86
330
1F
100
AcDbEntity
  8
0
  6
Continuous
 62
     7
370
    25
100
AcDbLine
 10
-0.0995981283
 20
-0.5484268173
 30
0.0
 11
-0.0995348371
 21
-0.5480470704
 31
0.0
  0
SPLINE
  5
87
330
1F
100
AcDbEntity
  8
0
  6
Continuous
 62
     7
370
    25
100
AcDbSpline
210
0.0
220
0.0
230
1.0
 70
     8
 71
     3
 72
    15
 73
    11
 74
     0
 42
0.000000001
 43
0.00000001
 40
0.0
 40
0.0
 40
0.0
 40
0.0
 40
0.1063913137657626
 40
0.2223604705536983
 40
0.3482663563278894
 40
0.4833175464993212
 40
0.6208900076147755
 40
0.7506452731578164
 40
0.8778633468110377
 40
1.0
 40
1.0
 40
1.0
 40
1.0
 10
-0.0995348371211656
 20
-0.5480470704243413
 30
0.0
 10
-0.0997469037409148
 20
-0.5479679884201262
 30
0.0
 10
-0.1001901282080924
 20
-0.5478027050802826
 30
0.0
 10
-0.1008618187797328
 20
-0.5474890526939743
 30
0.0
 10
-0.1015722627798247
 20
-0.5471175322005053
 30
0.0
 10
-0.1023051662521877
 20
-0.5466912016831997
 30
0.0
 10
-0.1030173826200141
 20
-0.5462151155549684
 30
0.0
 10
-0.1036741718727364
 20
-0.5456922242807627
 30
0.0
 10
-0.1042711255476338
 20
-0.5451475634672797
 30
0.0
 10
-0.1046127559866168
 20
-0.5447413106370386
 30
0.0
 10
-0.1047800902857226
 20
-0.5445423235888981
 30
0.0
  0
SPLINE
  5
88
330
1F
100
AcDbEntity
  8
0
  6
Continuous
 62
     7
370
    25
100
AcDbSpline
210
0.0
220
0.0
230
1.0
 70
     8
 71
     3
 72
    15
 73
    11
 74
     0
 42
0.000000001
 43
0.00000001
 40
0.0
 40
0.0
 40
0.0
 40
0.0
 40
0.105101509705151
 40
0.2125214633292956
 40
0.3228735754306614
 40
0.4372361287701814
 40
0.5596767389912369
 40
0.6933254311000326
 40
0.8389853441342005
 40
1.0
 40
1.0
 40
1.0
 40
1.0
 10
-0.1047800902857226
 20
-0.5445423235888981
 30
0.0
 10
-0.1049538056311949
 20
-0.5443083057999
 30
0.0
 10
-0.105305068325005
 20
-0.543835108001862
 30
0.0
 10
-0.1057466849945229
 20
-0.5430542577397879
 30
0.0
 10
-0.1061181205167048
 20
-0.5422110991723654
 30
0.0
 10
-0.1064272853994372
 20
-0.5412983815461188
 30
0.0
 10
-0.106635354070494
 20
-0.5402899090924949
 30
0.0
 10
-0.1067138854957486
 20
-0.5391771544774844
 30
0.0
 10
-0.106683660894806
 20
-0.537954957593874
 30
0.0
 10
-0.1065663605368588
 20
-0.5371127014687044
 30
0.0
 10
-0.1065047738300264
 20
-0.5366704881458602
 30
0.0
  0
SPLINE
  5
89
330
1F
100
AcDbEntity
  8
0
  6
Continuous
 62
     7
370
    25
100
AcDbSpline
210
0.0
220
0.0
230
1.0
 70
     8
 71
     3
 72
    15
 73
    11
 74
     0
 42
0.000000001
 43
0.00000001
 40
0.0
 40
0.0
 40
0.0
 40
0.0
 40
0.1347151986325817
 40
0.2645853167024547
 40
0.3908588592372668
 40
0.5148929862871813
 40
0.6376705829270269
 40
0.7583181526528394
 40
0.8786876448445311
 40
1.0
 40
1.0
 40
1.0
 40
1.0
 10
-0.1065047738300264
 20
-0.5366704881458602
 30
0.0
 10
-0.1064213543759696
 20
-0.5362227325242467
 30
0.0
 10
-0.1062575156785191
 20
-0.535343324972965
 30
0.0
 10
-0.1058636774910196
 20
-0.5340797863072495
 30
0.0
 10
-0.1053660716420807
 20
-0.5328934547721794
 30
0.0
 10
-0.104752757678635
 20
-0.5317895049626559
 30
0.0
 10
-0.10404216659866
 20
-0.5307687198661016
 30
0.0
 10
-0.1032361435993545
 20
-0.5298385865231917
 30
0.0
 10
-0.1023494850833513
 20
-0.5289901468682583
 30
0.0
 10
-0.1016922622040284
 20
-0.5285044658910186
 30
0.0
 10
-0.1013623687667352
 20
-0.5282606780192779
 30
0.0
  0
SPLINE
  5
8A
330
1F
100
AcDbEntity
  8
0
  6
Continuous
 62
     7
370
    25
100
AcDbSpline
210
0.0
220
0.0
230
1.0
 70
     8
 71
     3
 72
    15
 73
    11
 74
     0
 42
0.000000001
 43
0.00000001
 40
0.0
 40
0.0
 40
0.0
 40
0.0
 40
0.1190253296685619
 40
0.2370209748508767
 40
0.3563928012996789
 40
0.4778866046524168
 40
0.6027994127412377
 40
0.7309998398672001
 40
0.8626803918559423
 40
1.0
 40
1.0
 40
1.0
 40
1.0
 10
-0.1013623687667353
 20
-0.528260678019278
 30
0.0
 10
-0.1009775730376698
 20
-0.5280110522485182
 30
0.0
 10
-0.1002113104356211
 20
-0.5275139602119061
 30
0.0
 10
-0.098960755363442
 20
-0.5269390774496719
 30
0.0
 10
-0.0976508881488216
 20
-0.5264942746344304
 30
0.0
 10
-0.0962742996161836
 20
-0.5261847540352805
 30
0.0
 10
-0.0948400214292499
 20
-0.5260177218025599
 30
0.0
 10
-0.0933585255163839
 20
-0.5259609332340777
 30
0.0
 10
-0.0918288732420965
 20
-0.5260326384506794
 30
0.0
 10
-0.0908024685997407
 20
-0.5261720870330052
 30
0.0
 10
-0.0902785080072416
 20
-0.5262432729559867
 30
0.0
  0
SPLINE
  5
8B
330
1F
100
AcDbEntity
  8
0
  6
Continuous
 62
     7
370
    25
100
AcDbSpline
210
0.0
220
0.0
230
1.0
 70
     8
 71
     3
 72
    15
 73
    11
 74
     0
 42
0.000000001
 43
0.00000001
 40
0.0
 40
0.0
 40
0.0
 40
0.0
 40
0.1356688164408927
 40
0.2709660058236292
 40
0.4062695024736001
 40
0.542133173226809
 40
0.6728574739253222
 40
0.7923383959163766
 40
0.9014015578775576
 40
1.0
 40
1.0
 40
1.0
 40
1.0
 10
-0.0902785080072416
 20
-0.5262432729559867
 30
0.0
 10
-0.0897394118633393
 20
-0.5263404611528595
 30
0.0
 10
-0.0886626962797567
 20
-0.5265345713265212
 30
0.0
 10
-0.0870684583326276
 20
-0.5269271625272973
 30
0.0
 10
-0.0855089726383758
 20
-0.5274414988348266
 30
0.0
 10
-0.0839951765514118
 20
-0.5280269956956667
 30
0.0
 10
-0.0825700922551812
 20
-0.528659624954889
 30
0.0
 10
-0.081268474334249
 20
-0.529300121122598
 30
0.0
 10
-0.0801097239962494
 20
-0.5299358340975125
 30
0.0
 10
-0.0794034203594184
 20
-0.5303878374354597
 30
0.0
 10
-0.0790680649692669
 20
-0.5306024501711767
 30
0.0
  0
LINE
  5
8C
330
1F
100
AcDbEntity
  8
0
  6
Continuous
 62
     7
370
    25
100
AcDbLine
 10
-0.079068065
 20
-0.5306024502
 30
0.0
 11
-0.0799541409
 21
-0.5361878932
 31
0.0
  0
LINE
  5
8D
330
1F
100
AcDbEntity
  8
0
  6
Continuous
 62
     7
370
    25
100
AcDbLine
 10
-0.0799541409
 20
-0.5361878932
 30
0.0
 11
-0.0803417991
 21
-0.5361246021
 31
0.0
  0
SPLINE
  5
8E
330
1F
100
AcDbEntity
  8
0
  6
Continuous
 62
     7
370
    25
100
AcDbSpline
210
0.0
220
0.0
230
1.0
 70
     8
 71
     3
 72
    15
 73
    11
 74
     0
 42
0.000000001
 43
0.00000001
 40
0.0
 40
0.0
 40
0.0
 40
0.0
 40
0.1162149306996717
 40
0.2375546830672019
 40
0.3638571664991354
 40
0.4960875625800384
 40
0.6284842429574418
 40
0.7557595455124613
 40
0.8795795014205297
 40
1.0
 40
1.0
 40
1.0
 40
1.0
 10
-0.0803417991464821
 20
-0.5361246020699109
 30
0.0
 10
-0.0806829414003661
 20
-0.5358162200681209
 30
0.0
 10
-0.0813802695277793
 20
-0.5351858570996297
 30
0.0
 10
-0.0825313296816985
 20
-0.5343184918374435
 30
0.0
 10
-0.0837951165851695
 20
-0.5335037845425648
 30
0.0
 10
-0.0851454843857452
 20
-0.5327487869597034
 30
0.0
 10
-0.0865408249165191
 20
-0.5320699201425481
 30
0.0
 10
-0.0879573826248223
 20
-0.5315239684793766
 30
0.0
 10
-0.0893650994645745
 20
-0.5310926491566861
 30
0.0
 10
-0.0903160029478854
 20
-0.5309179931035719
 30
0.0
 10
-0.0907848371211656
 20
-0.5308318805509235
 30
0.0
  0
SPLINE
  5
8F
330
1F
100
AcDbEntity
  8
0
  6
Continuous
 62
     7
370
    25
100
AcDbSpline
210
0.0
220
0.0
230
1.0
 70
     8
 71
     3
 72
    15
 73
    11
 74
     0
 42
0.000000001
 43
0.00000001
 40
0.0
 40
0.0
 40
0.0
 40
0.0
 40
0.1189353980587308
 40
0.2427707896370837
 40
0.3711066240181447
 40
0.5067871531702954
 40
0.6406135697896439
 40
0.7651296557387418
 40
0.8854677036124439
 40
1.0
 40
1.0
 40
1.0
 40
1.0
 10
-0.0907848371211656
 20
-0.5308318805509235
 30
0.0
 10
-0.0910639620809007
 20
-0.5307958819696847
 30
0.0
 10
-0.0916337116086977
 20
-0.5307224017095116
 30
0.0
 10
-0.0925124988184254
 20
-0.5306932509107586
 30
0.0
 10
-0.0934294565010974
 20
-0.5307373659276202
 30
0.0
 10
-0.0943657441776927
 20
-0.5308357076695339
 30
0.0
 10
-0.0952849101823904
 20
-0.5309996574592553
 30
0.0
 10
-0.0961443226913211
 20
-0.5312567626395851
 30
0.0
 10
-0.0969313217871031
 20
-0.5315877150504336
 30
0.0
 10
-0.0973997614107301
 20
-0.5318879872873024
 30
0.0
 10
-0.0976281915515454
 20
-0.5320344121964931
 30
0.0
  0
SPLINE
  5
90
330
1F
100
AcDbEntity
  8
0
  6
Continuous
 62
     7
370
    25
100
AcDbSpline
210
0.0
220
0.0
230
1.0
 70
     8
 71
     3
 72
    15
 73
    11
 74
     0
 42
0.000000001
 43
0.00000001
 40
0.0
 40
0.0
 40
0.0
 40
0.0
 40
0.120635261487965
 40
0.237300232372533
 40
0.351067218657795
 40
0.4640293810975202
 40
0.581070905933506
 40
0.7088942671355054
 40
0.8482831965043897
 40
1.0
 40
1.0
 40
1.0
 40
1.0
 10
-0.0976281915515454
 20
-0.5320344121964931
 30
0.0
 10
-0.0978506194650688
 20
-0.5322042372614029
 30
0.0
 10
-0.098288154849949
 20
-0.5325382981891009
 30
0.0
 10
-0.0988745558492464
 20
-0.533105083506632
 30
0.0
 10
-0.099395140474811
 20
-0.5337089601047532
 30
0.0
 10
-0.0998449954752749
 20
-0.5343686809520276
 30
0.0
 10
-0.1002352115979323
 20
-0.5351032378915772
 30
0.0
 10
-0.1005433308120953
 20
-0.5359408455247969
 30
0.0
 10
-0.1008087158563908
 20
-0.5368764522050218
 30
0.0
 10
-0.1009230394312474
 20
-0.5375419843691724
 30
0.0
 10
-0.1009826219312922
 20
-0.5378888425762399
 30
0.0
  0
SPLINE
  5
91
330
1F
100
AcDbEntity
  8
0
  6
Continuous
 62
     7
370
    25
100
AcDbSpline
210
0.0
220
0.0
230
1.0
 70
     8
 71
     3
 72
    15
 73
    11
 74
     0
 42
0.000000001
 43
0.00000001
 40
0.0
 40
0.0
 40
0.0
 40
0.0
 40
0.1575510994884945
 40
0.3020463508120107
 40
0.4349939888090884
 40
0.5581473840999795
 40
0.673305075829706
 40
0.7843549611084303
 40
0.8926301911141588
 40
1.0
 40
1.0
 40
1.0
 40
1.0
 10
-0.1009826219312922
 20
-0.5378888425762399
 30
0.0
 10
-0.1010320451117784
 20
-0.5382336197782515
 30
0.0
 10
-0.101126795902854
 20
-0.5388946033959405
 30
0.0
 10
-0.1011484579867585
 20
-0.5398574313037238
 30
0.0
 10
-0.1010827319337577
 20
-0.5407415797216479
 30
0.0
 10
-0.100917519118614
 20
-0.5415474305729402
 30
0.0
 10
-0.1006612414282898
 20
-0.5422779886274818
 30
0.0
 10
-0.1003257531863944
 20
-0.5429379911116875
 30
0.0
 10
-0.0999236085573334
 20
-0.5435410534027695
 30
0.0
 10
-0.0995954028571955
 20
-0.5438873215235783
 30
0.0
 10
-0.0994319890198998
 20
-0.5440597286521893
 30
0.0
  0
SPLINE
  5
92
330
1F
100
AcDbEntity
  8
0
  6
Continuous
 62
     7
370
    25
100
AcDbSpline
210
0.0
220
0.0
230
1.0
 70
     8
 71
     3
 72
    13
 73
     9
 74
     0
 42
0.000000001
 43
0.00000001
 40
0.0
 40
0.0
 40
0.0
 40
0.0
 40
0.1086537139985015
 40
0.2205760321147019
 40
0.3382749429358203
 40
0.460970484303568
 40
0.7218906178208849
 40
1.0
 40
1.0
 40
1.0
 40
1.0
 10
-0.0994319890198998
 20
-0.5440597286521893
 30
0.0
 10
-0.0992538547978412
 20
-0.5442252314278486
 30
0.0
 10
-0.0988922275838273
 20
-0.544561215760233
 30
0.0
 10
-0.0982650580296257
 20
-0.544988543567164
 30
0.0
 10
-0.0975682382660033
 20
-0.5453580005061613
 30
0.0
 10
-0.0965305430277414
 20
-0.5457846475386137
 30
0.0
 10
-0.0951044418197702
 20
-0.5461930056535946
 30
0.0
 10
-0.0939197873871949
 20
-0.5464140410549573
 30
0.0
 10
-0.0933085712983808
 20
-0.5465280830825691
 30
0.0
  0
LINE
  5
93
330
1F
100
AcDbEntity
  8
0
  6
Continuous
 62
     7
370
    25
100
AcDbLine
 10
-0.0933085713
 20
-0.5465280831
 30
0.0
 11
-0.0909905333
 21
-0.5468920071
 31
0.0
  0
LINE
  5
94
330
1F
100
AcDbEntity
  8
0
  6
Continuous
 62
     7
370
    25
100
AcDbLine
 10
-0.0909905333
 20
-0.5468920071
 30
0.0
 11
-0.0917183814
 21
-0.5514489692
 31
0.0
  0
LINE
  5
95
330
1F
100
AcDbEntity
  8
0
  6
Continuous
 62
     7
370
    25
100
AcDbLine
 10
-0.0917183814
 20
-0.5514489692
 30
0.0
 11
-0.0934747105
 21
-0.5511720704
 31
0.0
  0
SPLINE
  5
96
330
1F
100
AcDbEntity
  8
0
  6
Continuous
 62
     7
370
    25
100
AcDbSpline
210
0.0
220
0.0
230
1.0
 70
     8
 71
     3
 72
    23
 73
    19
 74
     0
 42
0.000000001
 43
0.00000001
 40
0.0
 40
0.0
 40
0.0
 40
0.0
 40
0.0768611280698105
 40
0.1500606050597743
 40
0.220492663113989
 40
0.2872012496828594
 40
0.351363906450362
 40
0.4132677917357265
 40
0.4735554296784885
 40
0.5325408355126661
 40
0.5899442094471752
 40
0.6456532844295001
 40
0.7013960759459561
 40
0.7572249394283375
 40
0.8139699121207038
 40
0.8730225257192308
 40
0.9347372673075599
 40
1.0
 40
1.0
 40
1.0
 40
1.0
 10
-0.0934747105388871
 20
-0.5511720704243411
 30
0.0
 10
-0.0937854793578164
 20
-0.5511290968294563
 30
0.0
 10
-0.0943922120219517
 20
-0.5510451968944445
 30
0.0
 10
-0.0952906520522586
 20
-0.5509793251727901
 30
0.0
 10
-0.0961494926251074
 20
-0.5509819482642047
 30
0.0
 10
-0.0969708116845277
 20
-0.5510296125632034
 30
0.0
 10
-0.0977474613238387
 20
-0.5511618439000233
 30
0.0
 10
-0.0984880412963872
 20
-0.5513391875601409
 30
0.0
 10
-0.0991853368737075
 20
-0.5515884786500429
 30
0.0
 10
-0.0998443643013472
 20
-0.5518838454324547
 30
0.0
 10
-0.1004466813350429
 20
-0.5522488645007836
 30
0.0
 10
-0.1009914887224781
 20
-0.5526729936957723
 30
0.0
 10
-0.1014786037748322
 20
-0.5531546672719785
 30
0.0
 10
-0.1018893435507912
 20
-0.5537077497628042
 30
0.0
 10
-0.1022430813169841
 20
-0.5543144047426256
 30
0.0
 10
-0.1025220392502815
 20
-0.5549842869532642
 30
0.0
 10
-0.1027606838815803
 20
-0.5557069890606163
 30
0.0
 10
-0.1028508408373764
 20
-0.5562179801526851
 30
0.0
 10
-0.1028971788933175
 20
-0.5564806147281387
 30
0.0
  0
SPLINE
  5
97
330
1F
100
AcDbEntity
  8
0
  6
Continuous
 62
     7
370
    25
100
AcDbSpline
210
0.0
220
0.0
230
1.0
 70
     8
 71
     3
 72
    15
 73
    11
 74
     0
 42
0.000000001
 43
0.00000001
 40
0.0
 40
0.0
 40
0.0
 40
0.0
 40
0.1381322780526381
 40
0.2678519851478509
 40
0.3940780770836948
 40
0.5162532795095066
 40
0.6373010637791426
 40
0.7564727941112935
 40
0.8766110264423571
 40
1.0
 40
1.0
 40
1.0
 40
1.0
 10
-0.1028971788933175
 20
-0.5564806147281387
 30
0.0
 10
-0.1029266450527252
 20
-0.5567149440980952
 30
0.0
 10
-0.1029837828151894
 20
-0.5571693316446277
 30
0.0
 10
-0.1029727179387118
 20
-0.5578440788245015
 30
0.0
 10
-0.1028922237453319
 20
-0.558487046546136
 30
0.0
 10
-0.1027103784865091
 20
-0.5590932288727437
 30
0.0
 10
-0.1024704192849303
 20
-0.5596659615589508
 30
0.0
 10
-0.1021429778080517
 20
-0.5601886139140866
 30
0.0
 10
-0.1017756950168881
 20
-0.5606898132759064
 30
0.0
 10
-0.1014751103345171
 20
-0.5609783884494388
 30
0.0
 10
-0.10132281180471
 20
-0.5611246020699109
 30
0.0
  0
SPLINE
  5
98
330
1F
100
AcDbEntity
  8
0
  6
Continuous
 62
     7
370
    25
100
AcDbSpline
210
0.0
220
0.0
230
1.0
 70
     8
 71
     3
 72
    13
 73
     9
 74
     0
 42
0.000000001
 43
0.00000001
 40
0.0
 40
0.0
 40
0.0
 40
0.0
 40
0.1187655065966232
 40
0.2359000511312664
 40
0.3527300670868713
 40
0.4709458099604929
 40
0.7218633165652388
 40
1.0
 40
1.0
 40
1.0
 40
1.0
 10
-0.1013228118047099
 20
-0.5611246020699108
 30
0.0
 10
-0.1011535298988007
 20
-0.5612644764754827
 30
0.0
 10
-0.1008172907717685
 20
-0.5615423044439888
 30
0.0
 10
-0.1002768046279764
 20
-0.5619091724810419
 30
0.0
 10
-0.099702681309983
 20
-0.5622179924717692
 30
0.0
 10
-0.0988772930714043
 20
-0.5625745441075762
 30
0.0
 10
-0.0977271386884702
 20
-0.562918792930913
 30
0.0
 10
-0.0967652231243062
 20
-0.5630962054184782
 30
0.0
 10
-0.0962595206654694
 20
-0.5631894754876323
 30
0.0
  0
SPLINE
  5
99
330
1F
100
AcDbEntity
  8
0
  6
Continuous
 62
     7
370
    25
100
AcDbSpline
210
0.0
220
0.0
230
1.0
 70
     8
 71
     3
 72
    15
 73
    11
 74
     0
 42
0.000000001
 43
0.00000001
 40
0.0
 40
0.0
 40
0.0
 40
0.0
 40
0.1116329875145707
 40
0.2274598135771477
 40
0.3490111064878613
 40
0.4756972583782124
 40
0.605948355514675
 40
0.736466347530907
 40
0.8675369231633737
 40
1.0
 40
1.0
 40
1.0
 40
1.0
 10
-0.0962595206654694
 20
-0.5631894754876323
 30
0.0
 10
-0.0958408947439094
 20
-0.5632459092244388
 30
0.0
 10
-0.094987915922894
 20
-0.5633608968059708
 30
0.0
 10
-0.0936661625507211
 20
-0.5633659960071268
 30
0.0
 10
-0.0922904685221924
 20
-0.5633049808300566
 30
0.0
 10
-0.090872123976159
 20
-0.5631052761144745
 30
0.0
 10
-0.0894338363647132
 20
-0.5628225707714224
 30
0.0
 10
-0.0880098288468735
 20
-0.5624104982716591
 30
0.0
 10
-0.0866020640529616
 20
-0.5619189901215313
 30
0.0
 10
-0.0856949198189951
 20
-0.5615061589701168
 30
0.0
 10
-0.0852389510452163
 20
-0.5612986527028222
 30
0.0
  0
LINE
  5
9A
330
1F
100
AcDbEntity
  8
0
  6
Continuous
 62
     7
370
    25
100
AcDbLine
 10
-0.085238951
 20
-0.5612986527
 30
0.0
 11
-0.0849778751
 21
-0.5613382097
 31
0.0
  0
LINE
  5
9B
330
1F
100
AcDbEntity
  8
0
  6
Continuous
 62
     7
370
    25
100
AcDbLine
 10
-0.0849778751
 20
-0.5613382097
 30
0.0
 11
-0.085863951
 21
-0.5669236527
 31
0.0
  0
SPLINE
  5
9C
330
1F
100
AcDbEntity
  8
0
  6
Continuous
 62
     7
370
    25
100
AcDbSpline
210
0.0
220
0.0
230
1.0
 70
     8
 71
     3
 72
    15
 73
    11
 74
     0
 42
0.000000001
 43
0.00000001
 40
0.0
 40
0.0
 40
0.0
 40
0.0
 40
0.0977079909500933
 40
0.2072914932229026
 40
0.3289832532968553
 40
0.4638471848341678
 40
0.6029164125175487
 40
0.7383063902718565
 40
0.8705158416981268
 40
1.0
 40
1.0
 40
1.0
 40
1.0
 10
-0.0858639510452163
 20
-0.5669236527028222
 30
0.0
 10
-0.086224055618287
 20
-0.5670284466172847
 30
0.0
 10
-0.0869880321768302
 20
-0.5672507711866304
 30
0.0
 10
-0.0882258432765906
 20
-0.5675054016013928
 30
0.0
 10
-0.0896154671756203
 20
-0.5677135619851992
 30
0.0
 10
-0.0911239112591323
 20
-0.5678897946055457
 30
0.0
 10
-0.0926927645486313
 20
-0.5679802640211667
 30
0.0
 10
-0.0942539778366402
 20
-0.5679944261545127
 30
0.0
 10
-0.0957764332832768
 20
-0.567900032461012
 30
0.0
 10
-0.0967717779549613
 20
-0.5677655233306022
 30
0.0
 10
-0.0972642675009125
 20
-0.5676989691585184
 30
0.0
  0
SPLINE
  5
9D
330
1F
100
AcDbEntity
  8
0
  6
Continuous
 62
     7
370
    25
100
AcDbSpline
210
0.0
220
0.0
230
1.0
 70
     8
 71
     3
 72
    15
 73
    11
 74
     0
 42
0.000000001
 43
0.00000001
 40
0.0
 40
0.0
 40
0.0
 40
0.0
 40
0.1472901508708258
 40
0.2868233038230544
 40
0.4172018236623369
 40
0.5407565880294719
 40
0.6584474513877999
 40
0.7736894081158531
 40
0.887115749099447
 40
1.0
 40
1.0
 40
1.0
 40
1.0
 10
-0.0972642675009125
 20
-0.5676989691585184
 30
0.0
 10
-0.097724156150439
 20
-0.5676197524302392
 30
0.0
 10
-0.0986197135320295
 20
-0.5674654909023042
 30
0.0
 10
-0.0999053467561941
 20
-0.5671555330889497
 30
0.0
 10
-0.1011006522886373
 20
-0.5668006357403864
 30
0.0
 10
-0.1022059181219103
 20
-0.5663919751172246
 30
0.0
 10
-0.1032292143326486
 20
-0.5659116724092231
 30
0.0
 10
-0.1041839075667438
 20
-0.5653681228504867
 30
0.0
 10
-0.1050660280040708
 20
-0.5647380932349834
 30
0.0
 10
-0.1056089587220126
 20
-0.5642696533712331
 30
0.0
 10
-0.1058797738300264
 20
-0.5640359944749741
 30
0.0
  0
SPLINE
  5
9E
330
1F
100
AcDbEntity
  8
0
  6
Continuous
 62
     7
370
    25
100
AcDbSpline
210
0.0
220
0.0
230
1.0
 70
     8
 71
     3
 72
    15
 73
    11
 74
     0
 42
0.000000001
 43
0.00000001
 40
0.0
 40
0.0
 40
0.0
 40
0.0
 40
0.1293699942448518
 40
0.2528870393922394
 40
0.3734101624029277
 40
0.4923167393278848
 40
0.6124821301275836
 40
0.7356967342902487
 40
0.8642974758221388
 40
1.0
 40
1.0
 40
1.0
 40
1.0
 10
-0.1058797738300264
 20
-0.5640359944749741
 30
0.0
 10
-0.1061482670379722
 20
-0.5637709785300002
 30
0.0
 10
-0.1066731063011311
 20
-0.5632529364746739
 30
0.0
 10
-0.1073225299292013
 20
-0.5623761422343216
 30
0.0
 10
-0.1078608597104598
 20
-0.5614639271230963
 30
0.0
 10
-0.1082670304487457
 20
-0.5604955588283552
 30
0.0
 10
-0.1085517115587
 20
-0.5594754804496919
 30
0.0
 10
-0.1086738718440454
 20
-0.5583965475758235
 30
0.0
 10
-0.1087019537016087
 20
-0.5572649926267111
 30
0.0
 10
-0.1085988500730628
 20
-0.5565010262797973
 30
0.0
 10
-0.1085459130705327
 20
-0.5561087792851007
 30
0.0
  0
SPLINE
  5
9F
330
1F
100
AcDbEntity
  8
0
  6
Continuous
 62
     7
370
    25
100
AcDbSpline
210
0.0
220
0.0
230
1.0
 70
     8
 71
     3
 72
    23
 73
    19
 74
     0
 42
0.000000001
 43
0.00000001
 40
0.0
 40
0.0
 40
0.0
 40
0.0
 40
0.0646442744921655
 40
0.1280851999443886
 40
0.1896394872247068
 40
0.2512782261698612
 40
0.3132660546155839
 40
0.3751169757336572
 40
0.4387761827556043
 40
0.5038866943612836
 40
0.5690652281411275
 40
0.63295704995834
 40
0.6948857964602936
 40
0.756590140123231
 40
0.8170549407971154
 40
0.8778787370055539
 40
0.93829253404263
 40
1.0
 40
1.0
 40
1.0
 40
1.0
 10
-0.1085459130705327
 20
-0.5561087792851007
 30
0.0
 10
-0.1084952304005762
 20
-0.5558387151799449
 30
0.0
 10
-0.1083948085153267
 20
-0.555303614195698
 30
0.0
 10
-0.1081642204341608
 20
-0.5545301343939523
 30
0.0
 10
-0.1078701494241189
 20
-0.5537924540812441
 30
0.0
 10
-0.1075021392987221
 20
-0.5530958290560797
 30
0.0
 10
-0.107078406640501
 20
-0.5524301225865665
 30
0.0
 10
-0.1065798937663883
 20
-0.551807090222867
 30
0.0
 10
-0.1060185111374267
 20
-0.5512218726615017
 30
0.0
 10
-0.1053948354294304
 20
-0.5506821094470447
 30
0.0
 10
-0.1047358782102872
 20
-0.550184527956011
 30
0.0
 10
-0.1040482514634193
 20
-0.5497521249777715
 30
0.0
 10
-0.103345592962467
 20
-0.5493752737569793
 30
0.0
 10
-0.1026288601755944
 20
-0.5490603416704335
 30
0.0
 10
-0.1018943855863695
 20
-0.5488026044227441
 30
0.0
 10
-0.1011446291666447
 20
-0.5486151960349058
 30
0.0
 10
-0.1003772292876154
 20
-0.5484854332223804
 30
0.0
 10
-0.0998596562075774
 20
-0.5484464934145241
 30
0.0
 10
-0.0995981282604062
 20
-0.5484268172597843
 30
0.0
  0
SPLINE
  5
A0
330
1F
100
AcDbEntity
  8
0
  6
Continuous
 62
     7
370
    25
100
AcDbSpline
210
0.0
220
0.0
230
1.0
 70
     8
 71
     3
 72
     8
 73
     4
 74
     0
 42
0.000000001
 43
0.00000001
 40
0.0
 40
0.0
 40
0.0
 40
0.0
 40
0.125929585376187
 40
0.125929585376187
 40
0.125929585376187
 40
0.125929585376187
 10
0.1061717732867047
 20
0.530824344741684
 30
0.0
 10
0.1062827138045889
 20
0.5303837793962641
 30
0.0
 10
0.1063936543224731
 20
0.529943214050844
 30
0.0
 10
0.1065420184387825
 20
0.5295159349131846
 30
0.0
  0
SPLINE
  5
A1
330
1F
100
AcDbEntity
  8
0
  6
Continuous
 62
     7
370
    25
100
AcDbSpline
210
0.0
220
0.0
230
1.0
 70
     8
 71
     3
 72
    12
 73
     8
 74
     0
 42
0.000000001
 43
0.00000001
 40
0.0
 40
0.0
 40
0.0
 40
0.0
 40
0.1705011849957069
 40
0.3365859197209006
 40
0.5011160455577078
 40
0.7662083662929329
 40
1.0
 40
1.0
 40
1.0
 40
1.0
 10
0.0928291926660413
 20
0.526884940939643
 30
0.0
 10
0.093650347945488
 20
0.5267832058355437
 30
0.0
 10
0.0952713883210915
 20
0.5265823708467313
 30
0.0
 10
0.0977132460709801
 20
0.5266728888171385
 30
0.0
 10
0.1005521815575912
 20
0.5271501328272801
 30
0.0
 10
0.1037055974191098
 20
0.5282036161013648
 30
0.0
 10
0.1053848338903065
 20
0.5299880886411217
 30
0.0
 10
0.1061717732867047
 20
0.530824344741684
 30
0.0
  0
SPLINE
  5
A2
330
1F
100
AcDbEntity
  8
0
  6
Continuous
 62
     7
370
    25
100
AcDbSpline
210
0.0
220
0.0
230
1.0
 70
     8
 71
     3
 72
     8
 73
     4
 74
     0
 42
0.000000001
 43
0.00000001
 40
0.0
 40
0.0
 40
0.0
 40
0.0
 40
1.0
 40
1.0
 40
1.0
 40
1.0
 10
0.0620226677
 20
0.5313926878
 30
0.0
 10
0.0723323381725318
 20
0.5301893719522763
 30
0.0
 10
0.0826069780500656
 20
0.5286859412298672
 30
0.0
 10
0.0928291926660413
 20
0.526884940939643
 30
0.0
  0
LINE
  5
A3
330
1F
100
AcDbEntity
  8
0
  6
Continuous
 62
     7
370
    25
100
AcDbLine
 10
0.06031293
 20
0.5375227969
 30
0.0
 11
0.0620226677
 21
0.5313926878
 31
0.0
  0
SPLINE
  5
A4
330
1F
100
AcDbEntity
  8
0
  6
Continuous
 62
     7
370
    25
100
AcDbSpline
210
0.0
220
0.0
230
1.0
 70
     8
 71
     3
 72
     8
 73
     4
 74
     0
 42
0.000000001
 43
0.00000001
 40
0.0
 40
0.0
 40
0.0
 40
0.0
 40
1.0
 40
1.0
 40
1.0
 40
1.0
 10
0.0501423148
 20
0.5385667585
 30
0.0
 10
0.05353571555187
 20
0.5382509048195641
 30
0.0
 10
0.0569261188001983
 20
0.5379028522643386
 30
0.0
 10
0.06031293
 20
0.5375227969
 30
0.0
  0
LINE
  5
A5
330
1F
100
AcDbEntity
  8
0
  6
Continuous
 62
     7
370
    25
100
AcDbLine
 10
0.047131472
 20
0.5329199043
 30
0.0
 11
0.0501423148
 21
0.5385667585
 31
0.0
  0
SPLINE
  5
A6
330
1F
100
AcDbEntity
  8
0
  6
Continuous
 62
     7
370
    25
100
AcDbSpline
210
0.0
220
0.0
230
1.0
 70
     8
 71
     3
 72
     8
 73
     4
 74
     0
 42
0.000000001
 43
0.00000001
 40
0.0
 40
0.0
 40
0.0
 40
0.0
 40
1.0
 40
1.0
 40
1.0
 40
1.0
 10
0.047131472
 20
0.5329199043
 30
0.0
 10
0.0309972461691984
 20
0.5343468162667616
 30
0.0
 10
0.0147981942089659
 20
0.5350405244209521
 30
0.0
 10
-0.0013989514076974
 20
0.5349981709641246
 30
0.0
  0
SPLINE
  5
A7
330
1F
100
AcDbEntity
  8
0
  6
Continuous
 62
     7
370
    25
100
AcDbSpline
210
0.0
220
0.0
230
1.0
 70
     8
 71
     3
 72
     8
 73
     4
 74
     0
 42
0.000000001
 43
0.00000001
 40
0.0
 40
0.0
 40
0.0
 40
0.0
 40
1.0
 40
1.0
 40
1.0
 40
1.0
 10
-0.0013989514076974
 20
0.5349981709641246
 30
0.0
 10
-0.0025055462009304
 20
0.536926111992331
 30
0.0
 10
-0.0024831648596274
 20
0.539202359518036
 30
0.0
 10
-0.0026688575247046
 20
0.5413799220083458
 30
0.0
  0
SPLINE
  5
A8
330
1F
100
AcDbEntity
  8
0
  6
Continuous
 62
     7
370
    25
100
AcDbSpline
210
0.0
220
0.0
230
1.0
 70
     8
 71
     3
 72
     9
 73
     5
 74
     0
 42
0.000000001
 43
0.00000001
 40
0.0
 40
0.0
 40
0.0
 40
0.0
 40
0.4929887026596599
 40
1.0
 40
1.0
 40
1.0
 40
1.0
 10
-0.0026688575247046
 20
0.5413799220083458
 30
0.0
 10
-0.0028877048950169
 20
0.5431875594666785
 30
0.0
 10
-0.0030417755169845
 20
0.5474545798681475
 30
0.0
 10
-0.0069109236784187
 20
0.5498102515289932
 30
0.0
 10
-0.0089686597289291
 20
0.549493646586871
 30
0.0
  0
SPLINE
  5
A9
330
1F
100
AcDbEntity
  8
0
  6
Continuous
 62
     7
370
    25
100
AcDbSpline
210
0.0
220
0.0
230
1.0
 70
     8
 71
     3
 72
     8
 73
     4
 74
     0
 42
0.000000001
 43
0.00000001
 40
0.0
 40
0.0
 40
0.0
 40
0.0
 40
1.0
 40
1.0
 40
1.0
 40
1.0
 10
-0.0089686597289291
 20
0.549493646586871
 30
0.0
 10
-0.0118013179879168
 20
0.5494474774372995
 30
0.0
 10
-0.014633619609199
 20
0.5493793863311086
 30
0.0
 10
-0.0174652195
 20
0.5492892392
 30
0.0
  0
LINE
  5
AA
330
1F
100
AcDbEntity
  8
0
  6
Continuous
 62
     7
370
    25
100
AcDbLine
 10
-0.0174652195
 20
0.5492892392
 30
0.0
 11
-0.0169933864
 21
0.5347300485
 31
0.0
  0
SPLINE
  5
AB
330
1F
100
AcDbEntity
  8
0
  6
Continuous
 62
     7
370
    25
100
AcDbSpline
210
0.0
220
0.0
230
1.0
 70
     8
 71
     3
 72
     8
 73
     4
 74
     0
 42
0.000000001
 43
0.00000001
 40
0.0
 40
0.0
 40
0.0
 40
0.0
 40
1.0
 40
1.0
 40
1.0
 40
1.0
 10
-0.0169933864
 20
0.5347300485
 30
0.0
 10
-0.0206272302606363
 20
0.534614567262906
 30
0.0
 10
-0.024259896883108
 20
0.5344620431435249
 30
0.0
 10
-0.0278906314
 20
0.5342725079
 30
0.0
  0
LINE
  5
AC
330
1F
100
AcDbEntity
  8
0
  6
Continuous
 62
     7
370
    25
100
AcDbLine
 10
-0.0278906314
 20
0.5342725079
 30
0.0
 11
-0.0300260389
 21
0.5742154676
 31
0.0
  0
SPLINE
  5
AD
330
1F
100
AcDbEntity
  8
0
  6
Continuous
 62
     7
370
    25
100
AcDbSpline
210
0.0
220
0.0
230
1.0
 70
     8
 71
     3
 72
     8
 73
     4
 74
     0
 42
0.000000001
 43
0.00000001
 40
0.0
 40
0.0
 40
0.0
 40
0.0
 40
1.0
 40
1.0
 40
1.0
 40
1.0
 10
-0.0300260389
 20
0.5742154676
 30
0.0
 10
-0.0223844385759953
 20
0.5746150616679776
 30
0.0
 10
-0.0147348680491153
 20
0.5748620980186323
 30
0.0
 10
-0.0070834065160671
 20
0.5749563539557876
 30
0.0
  0
SPLINE
  5
AE
330
1F
100
AcDbEntity
  8
0
  6
Continuous
 62
     7
370
    25
100
AcDbSpline
210
0.0
220
0.0
230
1.0
 70
     8
 71
     3
 72
     9
 73
     5
 74
     0
 42
0.000000001
 43
0.00000001
 40
0.0
 40
0.0
 40
0.0
 40
0.0
 40
0.636836838215762
 40
1.0
 40
1.0
 40
1.0
 40
1.0
 10
-0.0070834065160671
 20
0.5749563539557876
 30
0.0
 10
-0.002497872549496
 20
0.5749781584315645
 30
0.0
 10
0.0057610674863464
 20
0.5736767855288318
 30
0.0
 10
0.0085559567980834
 20
0.5662964158005227
 30
0.0
 10
0.0085288135181154
 20
0.5636758270019512
 30
0.0
  0
SPLINE
  5
AF
330
1F
100
AcDbEntity
  8
0
  6
Continuous
 62
     7
370
    25
100
AcDbSpline
210
0.0
220
0.0
230
1.0
 70
     8
 71
     3
 72
     8
 73
     4
 74
     0
 42
0.000000001
 43
0.00000001
 40
0.0
 40
0.0
 40
0.0
 40
0.0
 40
1.0
 40
1.0
 40
1.0
 40
1.0
 10
0.0085288135181154
 20
0.5636758270019512
 30
0.0
 10
0.0083942437182201
 20
0.5594013227567282
 30
0.0
 10
0.0056774234761719
 20
0.5550839157613064
 30
0.0
 10
0.0015821137
 20
0.5537103575
 30
0.0
  0
LINE
  5
B0
330
1F
100
AcDbEntity
  8
0
  6
Continuous
 62
     7
370
    25
100
AcDbLine
 10
0.0015821137
 20
0.5537103575
 30
0.0
 11
0.0015818186
 21
0.5535980421
 31
0.0
  0
SPLINE
  5
B1
330
1F
100
AcDbEntity
  8
0
  6
Continuous
 62
     7
370
    25
100
AcDbSpline
210
0.0
220
0.0
230
1.0
 70
     8
 71
     3
 72
     8
 73
     4
 74
     0
 42
0.000000001
 43
0.00000001
 40
0.0
 40
0.0
 40
0.0
 40
0.0
 40
1.0
 40
1.0
 40
1.0
 40
1.0
 10
0.0015818186
 20
0.5535980421
 30
0.0
 10
0.0058256834914059
 20
0.5528493867458285
 30
0.0
 10
0.0073858137556619
 20
0.5479883370418783
 30
0.0
 10
0.0077511912206674
 20
0.5439646715963924
 30
0.0
  0
SPLINE
  5
B2
330
1F
100
AcDbEntity
  8
0
  6
Continuous
 62
     7
370
    25
100
AcDbSpline
210
0.0
220
0.0
230
1.0
 70
     8
 71
     3
 72
     8
 73
     4
 74
     0
 42
0.000000001
 43
0.00000001
 40
0.0
 40
0.0
 40
0.0
 40
0.0
 40
1.0
 40
1.0
 40
1.0
 40
1.0
 10
0.0077511912206674
 20
0.5439646715963924
 30
0.0
 10
0.0079363666637615
 20
0.5415567813633905
 30
0.0
 10
0.0080998582855422
 20
0.5391308501524518
 30
0.0
 10
0.0087443605
 20
0.5367987144
 30
0.0
  0
LINE
  5
B3
330
1F
100
AcDbEntity
  8
0
  6
Continuous
 62
     7
370
    25
100
AcDbLine
 10
0.0093362746
 20
0.5749241591
 30
0.0
 11
0.0087443605
 21
0.5367987144
 31
0.0
  0
SPLINE
  5
B4
330
1F
100
AcDbEntity
  8
0
  6
Continuous
 62
     7
370
    25
100
AcDbSpline
210
0.0
220
0.0
230
1.0
 70
     8
 71
     3
 72
     8
 73
     4
 74
     0
 42
0.000000001
 43
0.00000001
 40
0.0
 40
0.0
 40
0.0
 40
0.0
 40
1.0
 40
1.0
 40
1.0
 40
1.0
 10
0.0245486577
 20
0.5744756772
 30
0.0
 10
0.0194801665364896
 20
0.5746929454111609
 30
0.0
 10
0.0144087507373229
 20
0.5748417768385228
 30
0.0
 10
0.0093362746
 20
0.5749241591
 30
0.0
  0
LINE
  5
B5
330
1F
100
AcDbEntity
  8
0
  6
Continuous
 62
     7
370
    25
100
AcDbLine
 10
0.0233761522
 20
0.5459999833
 30
0.0
 11
0.0245486577
 21
0.5744756772
 31
0.0
  0
SPLINE
  5
B6
330
1F
100
AcDbEntity
  8
0
  6
Continuous
 62
     7
370
    25
100
AcDbSpline
210
0.0
220
0.0
230
1.0
 70
     8
 71
     3
 72
     8
 73
     4
 74
     0
 42
0.000000001
 43
0.00000001
 40
0.0
 40
0.0
 40
0.0
 40
0.0
 40
1.0
 40
1.0
 40
1.0
 40
1.0
 10
0.0381342396988956
 20
0.5451680661068712
 30
0.0
 10
0.0332189143465815
 20
0.5455116954313576
 30
0.0
 10
0.0282989639925823
 20
0.5457892046550425
 30
0.0
 10
0.0233761522
 20
0.5459999833
 30
0.0
  0
SPLINE
  5
B7
330
1F
100
AcDbEntity
  8
0
  6
Continuous
 62
     7
370
    25
100
AcDbSpline
210
0.0
220
0.0
230
1.0
 70
     8
 71
     3
 72
    14
 73
    10
 74
     0
 42
0.000000001
 43
0.00000001
 40
0.0
 40
0.0
 40
0.0
 40
0.0
 40
0.0312867996278487
 40
0.0625735992556985
 40
0.1250269333200522
 40
0.2500076757363477
 40
0.499948173303491
 40
0.7499740866517458
 40
1.0
 40
1.0
 40
1.0
 40
1.0
 10
0.0521208606936486
 20
0.5726328731704792
 30
0.0
 10
0.0519957657851056
 20
0.5723356675417333
 30
0.0
 10
0.0517455759680197
 20
0.5717412562842416
 30
0.0
 10
0.0510037838022084
 20
0.5706856688796395
 30
0.0
 10
0.0499989777822386
 20
0.5686713825378631
 30
0.0
 10
0.0479351242064175
 20
0.5646814879615288
 30
0.0
 10
0.0449878529120299
 20
0.558974483206196
 30
0.0
 10
0.0414899681045496
 20
0.5521072264649768
 30
0.0
 10
0.0392528158341136
 20
0.547481119559573
 30
0.0
 10
0.0381342396988956
 20
0.5451680661068712
 30
0.0
  0
SPLINE
  5
B8
330
1F
100
AcDbEntity
  8
0
  6
Continuous
 62
     7
370
    25
100
AcDbSpline
210
0.0
220
0.0
230
1.0
 70
     8
 71
     3
 72
     9
 73
     5
 74
     0
 42
0.000000001
 43
0.00000001
 40
0.0
 40
0.0
 40
0.0
 40
0.0
 40
0.5005618258236572
 40
1.0
 40
1.0
 40
1.0
 40
1.0
 10
0.0659054257727459
 20
0.571210533994379
 30
0.0
 10
0.0636075774175696
 20
0.571468798335595
 30
0.0
 10
0.0590170388734143
 20
0.5719847472711556
 30
0.0
 10
0.054417864130145
 20
0.5724169931019512
 30
0.0
 10
0.0521208606936486
 20
0.5726328731704792
 30
0.0
  0
SPLINE
  5
B9
330
1F
100
AcDbEntity
  8
0
  6
Continuous
 62
     7
370
    25
100
AcDbSpline
210
0.0
220
0.0
230
1.0
 70
     8
 71
     3
 72
    15
 73
    11
 74
     0
 42
0.000000001
 43
0.00000001
 40
0.0
 40
0.0
 40
0.0
 40
0.0
 40
0.0776130768778554
 40
0.250037668900347
 40
0.408203377744117
 40
0.5000628125378411
 40
0.6250498916223236
 40
0.7500369707068074
 40
0.8693728710686175
 40
0.9999999999999999
 40
0.9999999999999999
 40
0.9999999999999999
 40
0.9999999999999999
 10
0.0728677825
 20
0.5452386215
 30
0.0
 10
0.0727033584303104
 20
0.5459146698430333
 30
0.0
 10
0.0721736511705548
 20
0.5480926218740116
 30
0.0
 10
0.0712170044900716
 20
0.5516248586008405
 30
0.0
 10
0.0702415666811909
 20
0.5552841075634241
 30
0.0
 10
0.0694219857467945
 20
0.558544175215693
 30
0.0
 10
0.0686916371945041
 20
0.5615211924621508
 30
0.0
 10
0.0677088628385912
 20
0.5646833649549361
 30
0.0
 10
0.0667267638927156
 20
0.5678984591750853
 30
0.0
 10
0.0661873275460183
 20
0.5700737551915099
 30
0.0
 10
0.0659054257727459
 20
0.571210533994379
 30
0.0
  0
LINE
  5
BA
330
1F
100
AcDbEntity
  8
0
  6
Continuous
 62
     7
370
    25
100
AcDbLine
 10
0.0761521191
 20
0.5699349484
 30
0.0
 11
0.0728677825
 21
0.5452386215
 31
0.0
  0
SPLINE
  5
BB
330
1F
100
AcDbEntity
  8
0
  6
Continuous
 62
     7
370
    25
100
AcDbSpline
210
0.0
220
0.0
230
1.0
 70
     8
 71
     3
 72
     9
 73
     5
 74
     0
 42
0.000000001
 43
0.00000001
 40
0.0
 40
0.0
 40
0.0
 40
0.0
 40
0.5004879303660542
 40
1.0
 40
1.0
 40
1.0
 40
1.0
 10
0.0957357188124467
 20
0.5669741370687676
 30
0.0
 10
0.0924750140919734
 20
0.5675105116387138
 30
0.0
 10
0.0859599624341073
 20
0.5685822149454324
 30
0.0
 10
0.0794192725849247
 20
0.5694843306863688
 30
0.0
 10
0.0761521191
 20
0.5699349484
 30
0.0
  0
SPLINE
  5
BC
330
1F
100
AcDbEntity
  8
0
  6
Continuous
 62
     7
370
    25
100
AcDbSpline
210
0.0
220
0.0
230
1.0
 70
     8
 71
     3
 72
    14
 73
    10
 74
     0
 42
0.000000001
 43
0.00000001
 40
0.0
 40
0.0
 40
0.0
 40
0.0
 40
0.1008609473974393
 40
0.1976737556026759
 40
0.2940019903323064
 40
0.3934613168458966
 40
0.4993471341483766
 40
0.7224291915937116
 40
1.0
 40
1.0
 40
1.0
 40
1.0
 10
0.1114134059307829
 20
0.5567341673377364
 30
0.0
 10
0.1112397021799727
 20
0.557386146505298
 30
0.0
 10
0.1108992664248971
 20
0.5586639371066373
 30
0.0
 10
0.1099646442817531
 20
0.5604082664471619
 30
0.0
 10
0.1087303208895181
 20
0.5619336919182288
 30
0.0
 10
0.1071768799263461
 20
0.5632335063003511
 30
0.0
 10
0.1046825689190537
 20
0.5646507104788816
 30
0.0
 10
0.1008355974913955
 20
0.5659901112588334
 30
0.0
 10
0.0975547041434181
 20
0.5666231623444166
 30
0.0
 10
0.0957357188124467
 20
0.5669741370687676
 30
0.0
  0
SPLINE
  5
BD
330
1F
100
AcDbEntity
  8
0
  6
Continuous
 62
     7
370
    25
100
AcDbSpline
210
0.0
220
0.0
230
1.0
 70
     8
 71
     3
 72
    13
 73
     9
 74
     0
 42
0.000000001
 43
0.00000001
 40
0.0
 40
0.0
 40
0.0
 40
0.0
 40
0.1956726102023152
 40
0.3737150459171719
 40
0.5379468672016607
 40
0.6932102466728352
 40
0.8452069129601204
 40
1.0
 40
1.0
 40
1.0
 40
1.0
 10
0.1296778699177144
 20
0.5605764991598342
 30
0.0
 10
0.128426835334719
 20
0.5608331037402972
 30
0.0
 10
0.126037484846959
 20
0.5613231927336985
 30
0.0
 10
0.1225184635502534
 20
0.5614702278160999
 30
0.0
 10
0.1192792585076193
 20
0.5611113271442176
 30
0.0
 10
0.1163281085973195
 20
0.5601982250184494
 30
0.0
 10
0.1136432493342198
 20
0.5587686949548194
 30
0.0
 10
0.1121611901069863
 20
0.557416451822718
 30
0.0
 10
0.1114134059307829
 20
0.5567341673377364
 30
0.0
  0
SPLINE
  5
BE
330
1F
100
AcDbEntity
  8
0
  6
Continuous
 62
     7
370
    25
100
AcDbSpline
210
0.0
220
0.0
230
1.0
 70
     8
 71
     3
 72
    16
 73
    12
 74
     0
 42
0.000000001
 43
0.00000001
 40
0.0
 40
0.0
 40
0.0
 40
0.0
 40
0.118119281013642
 40
0.2245514295060979
 40
0.3229383975349384
 40
0.4178528025678191
 40
0.5143621215335573
 40
0.6172985512917564
 40
0.7306754627647136
 40
0.8575190479339189
 40
1.0
 40
1.0
 40
1.0
 40
1.0
 10
0.1438814531685528
 20
0.5414451015969408
 30
0.0
 10
0.1441202596800289
 20
0.5425006566174015
 30
0.0
 10
0.1445742443560878
 20
0.5445073263730311
 30
0.0
 10
0.1446407096328277
 20
0.5474812924417171
 30
0.0
 10
0.1441649228373209
 20
0.5502007393304124
 30
0.0
 10
0.1431058314648957
 20
0.5526580663561669
 30
0.0
 10
0.1414765907151591
 20
0.5548296735429548
 30
0.0
 10
0.1392951755795535
 20
0.55670976467338
 30
0.0
 10
0.1365757029286989
 20
0.5583001759336534
 30
0.0
 10
0.1333274807781717
 20
0.559635022094712
 30
0.0
 10
0.1309406020657266
 20
0.5602507566622911
 30
0.0
 10
0.1296778699177144
 20
0.5605764991598342
 30
0.0
  0
SPLINE
  5
BF
330
1F
100
AcDbEntity
  8
0
  6
Continuous
 62
     7
370
    25
100
AcDbSpline
210
0.0
220
0.0
230
1.0
 70
     8
 71
     3
 72
     9
 73
     5
 74
     0
 42
0.000000001
 43
0.00000001
 40
0.0
 40
0.0
 40
0.0
 40
0.0
 40
0.5006795649434865
 40
1.0
 40
1.0
 40
1.0
 40
1.0
 10
0.1322278458757744
 20
0.5443680810244256
 30
0.0
 10
0.134176575805198
 20
0.5438954941247455
 30
0.0
 10
0.1380687456996164
 20
0.5429516031957567
 30
0.0
 10
0.1419456404133987
 20
0.5419468135833486
 30
0.0
 10
0.1438814531685528
 20
0.5414451015969408
 30
0.0
  0
SPLINE
  5
C0
330
1F
100
AcDbEntity
  8
0
  6
Continuous
 62
     7
370
    25
100
AcDbSpline
210
0.0
220
0.0
230
1.0
 70
     8
 71
     3
 72
     8
 73
     4
 74
     0
 42
0.000000001
 43
0.00000001
 40
0.0
 40
0.0
 40
0.0
 40
0.0
 40
1.0
 40
1.0
 40
1.0
 40
1.0
 10
0.1324888927244531
 20
0.5442308466964162
 30
0.0
 10
0.1324021450989225
 20
0.5442771012400305
 30
0.0
 10
0.1323151294826962
 20
0.5443228460160334
 30
0.0
 10
0.1322278458757744
 20
0.5443680810244256
 30
0.0
  0
SPLINE
  5
C1
330
1F
100
AcDbEntity
  8
0
  6
Continuous
 62
     7
370
    25
100
AcDbSpline
210
0.0
220
0.0
230
1.0
 70
     8
 71
     3
 72
    14
 73
    10
 74
     0
 42
0.000000001
 43
0.00000001
 40
0.0
 40
0.0
 40
0.0
 40
0.0
 40
0.151768305670212
 40
0.24998203533463
 40
0.3802105807409504
 40
0.4997890187618378
 40
0.6385088156095337
 40
0.8041844669067167
 40
1.0
 40
1.0
 40
1.0
 40
1.0
 10
0.1417111035666996
 20
0.5288730385073914
 30
0.0
 10
0.1418907543198326
 20
0.529857626240151
 30
0.0
 10
0.1421866623535902
 20
0.5314793696226959
 30
0.0
 10
0.1422557877677676
 20
0.5340030210022031
 30
0.0
 10
0.1416304621637142
 20
0.5362481560669503
 30
0.0
 10
0.140370365478316
 20
0.5385064431908464
 30
0.0
 10
0.1383626459698465
 20
0.5404872347704974
 30
0.0
 10
0.1357108812717615
 20
0.5424573208564207
 30
0.0
 10
0.1336209720359322
 20
0.5436076998781231
 30
0.0
 10
0.1324888927244531
 20
0.5442308466964162
 30
0.0
  0
SPLINE
  5
C2
330
1F
100
AcDbEntity
  8
0
  6
Continuous
 62
     7
370
    25
100
AcDbSpline
210
0.0
220
0.0
230
1.0
 70
     8
 71
     3
 72
    13
 73
     9
 74
     0
 42
0.000000001
 43
0.00000001
 40
0.0
 40
0.0
 40
0.0
 40
0.0
 40
0.1872254239753378
 40
0.3576550387470485
 40
0.5170173142912495
 40
0.6722706659746374
 40
0.8309151068420355
 40
0.9999999999999999
 40
0.9999999999999999
 40
0.9999999999999999
 40
0.9999999999999999
 10
0.1284327436125154
 20
0.5193553989015247
 30
0.0
 10
0.129514514243345
 20
0.5194794258794361
 30
0.0
 10
0.1315810096974203
 20
0.5197163533828524
 30
0.0
 10
0.1344534813627531
 20
0.5206562969612926
 30
0.0
 10
0.1369317432959893
 20
0.5220339234322785
 30
0.0
 10
0.1389866681644934
 20
0.5238877863684377
 30
0.0
 10
0.1406423877401069
 20
0.5261853662186807
 30
0.0
 10
0.1413473786742379
 20
0.5279583207780769
 30
0.0
 10
0.1417111035666996
 20
0.5288730385073914
 30
0.0
  0
SPLINE
  5
C3
330
1F
100
AcDbEntity
  8
0
  6
Continuous
 62
     7
370
    25
100
AcDbSpline
210
0.0
220
0.0
230
1.0
 70
     8
 71
     3
 72
     8
 73
     4
 74
     0
 42
0.000000001
 43
0.00000001
 40
0.0
 40
0.0
 40
0.0
 40
0.0
 40
1.0
 40
1.0
 40
1.0
 40
1.0
 10
0.1130180152096557
 20
0.5229263122225506
 30
0.0
 10
0.1178505131070473
 20
0.520416184690788
 30
0.0
 10
0.1229887559080005
 20
0.5192258801792461
 30
0.0
 10
0.1284327436125154
 20
0.5193553989015247
 30
0.0
  0
SPLINE
  5
C4
330
1F
100
AcDbEntity
  8
0
  6
Continuous
 62
     7
370
    25
100
AcDbSpline
210
0.0
220
0.0
230
1.0
 70
     8
 71
     3
 72
     8
 73
     4
 74
     0
 42
0.000000001
 43
0.00000001
 40
0.8590968462653107
 40
0.8590968462653107
 40
0.8590968462653107
 40
0.8590968462653107
 40
1.0
 40
1.0
 40
1.0
 40
1.0
 10
0.1117127050748067
 20
0.5237073707431629
 30
0.0
 10
0.1121416649393559
 20
0.5234375843055081
 30
0.0
 10
0.1125798400745058
 20
0.5231819482640293
 30
0.0
 10
0.1130180152096557
 20
0.5229263122225506
 30
0.0
  0
SPLINE
  5
C5
330
1F
100
AcDbEntity
  8
0
  6
Continuous
 62
     7
370
    25
100
AcDbSpline
210
0.0
220
0.0
230
1.0
 70
     8
 71
     3
 72
     8
 73
     4
 74
     0
 42
0.000000001
 43
0.00000001
 40
0.1266619269169138
 40
0.1266619269169138
 40
0.1266619269169138
 40
0.1266619269169138
 40
0.8595424161074023
 40
0.8595424161074023
 40
0.8595424161074023
 40
0.8595424161074023
 10
0.1065420184971015
 20
0.5295159349334512
 30
0.0
 10
0.1074557751423848
 20
0.5270809756204492
 30
0.0
 10
0.1094738961198037
 20
0.5251565088580197
 30
0.0
 10
0.1117127051847816
 20
0.5237073709130912
 30
0.0
  0
LINE
  5
C6
330
1F
100
AcDbEntity
  8
0
  6
Continuous
 62
     7
370
    25
100
AcDbLine
 10
-0.0835740359
 20
0.5541673369
 30
0.0
 11
-0.0857468153
 21
0.5685705617
 31
0.0
  0
SPLINE
  5
C7
330
1F
100
AcDbEntity
  8
0
  6
Continuous
 62
     7
370
    25
100
AcDbSpline
210
0.0
220
0.0
230
1.0
 70
     8
 71
     3
 72
     8
 73
     4
 74
     0
 42
0.000000001
 43
0.00000001
 40
0.0
 40
0.0
 40
0.0
 40
0.0
 40
1.0
 40
1.0
 40
1.0
 40
1.0
 10
-0.0857468153
 20
0.5685705617
 30
0.0
 10
-0.081897793146605
 20
0.5691508248658299
 30
0.0
 10
-0.0780429340927123
 20
0.5696923874316873
 30
0.0
 10
-0.0741829492
 20
0.5701945815
 30
0.0
  0
LINE
  5
C8
330
1F
100
AcDbEntity
  8
0
  6
Continuous
 62
     7
370
    25
100
AcDbLine
 10
-0.0741829492
 20
0.5701945815
 30
0.0
 11
-0.0689792638
 21
0.5305345052
 31
0.0
  0
SPLINE
  5
C9
330
1F
100
AcDbEntity
  8
0
  6
Continuous
 62
     7
370
    25
100
AcDbSpline
210
0.0
220
0.0
230
1.0
 70
     8
 71
     3
 72
     8
 73
     4
 74
     0
 42
0.000000001
 43
0.00000001
 40
0.0
 40
0.0
 40
0.0
 40
0.0
 40
1.0
 40
1.0
 40
1.0
 40
1.0
 10
-0.0689792638
 20
0.5305345052
 30
0.0
 10
-0.0725845961628052
 20
0.5300657455042384
 30
0.0
 10
-0.0761851500326835
 20
0.5295602336576812
 30
0.0
 10
-0.0797801772
 20
0.5290180747
 30
0.0
  0
LINE
  5
CA
330
1F
100
AcDbEntity
  8
0
  6
Continuous
 62
     7
370
    25
100
AcDbLine
 10
-0.0797801772
 20
0.5290180747
 30
0.0
 11
-0.0822371915
 21
0.5453054756
 31
0.0
  0
SPLINE
  5
CB
330
1F
100
AcDbEntity
  8
0
  6
Continuous
 62
     7
370
    25
100
AcDbSpline
210
0.0
220
0.0
230
1.0
 70
     8
 71
     3
 72
     8
 73
     4
 74
     0
 42
0.000000001
 43
0.00000001
 40
0.0
 40
0.0
 40
0.0
 40
0.0
 40
1.0
 40
1.0
 40
1.0
 40
1.0
 10
-0.0822371915
 20
0.5453054756
 30
0.0
 10
-0.0871247154154847
 20
0.5445676479277958
 30
0.0
 10
-0.092002593330015
 20
0.5437658037806051
 30
0.0
 10
-0.0968685966
 20
0.5428973011
 30
0.0
  0
LINE
  5
CC
330
1F
100
AcDbEntity
  8
0
  6
Continuous
 62
     7
370
    25
100
AcDbLine
 10
-0.0968685966
 20
0.5428973011
 30
0.0
 11
-0.0939562552
 21
0.5266851262
 31
0.0
  0
SPLINE
  5
CD
330
1F
100
AcDbEntity
  8
0
  6
Continuous
 62
     7
370
    25
100
AcDbSpline
210
0.0
220
0.0
230
1.0
 70
     8
 71
     3
 72
     8
 73
     4
 74
     0
 42
0.000000001
 43
0.00000001
 40
0.0
 40
0.0
 40
0.0
 40
0.0
 40
1.0
 40
1.0
 40
1.0
 40
1.0
 10
-0.0939562552
 20
0.5266851262
 30
0.0
 10
-0.0975349868102372
 20
0.5260467101343581
 30
0.0
 10
-0.1011072113187098
 20
0.5253718175869407
 30
0.0
 10
-0.1046721866
 20
0.5246605887
 30
0.0
  0
LINE
  5
CE
330
1F
100
AcDbEntity
  8
0
  6
Continuous
 62
     7
370
    25
100
AcDbLine
 10
-0.1046721866
 20
0.5246605887
 30
0.0
 11
-0.1107471116
 21
0.5550968278
 31
0.0
  0
SPLINE
  5
CF
330
1F
100
AcDbEntity
  8
0
  6
Continuous
 62
     7
370
    25
100
AcDbSpline
210
0.0
220
0.0
230
1.0
 70
     8
 71
     3
 72
     8
 73
     4
 74
     0
 42
0.000000001
 43
0.00000001
 40
0.0
 40
0.0
 40
0.0
 40
0.0
 40
1.0
 40
1.0
 40
1.0
 40
1.0
 10
-0.1107471116
 20
0.5550968278
 30
0.0
 10
-0.1146763588615507
 20
0.5543117998857622
 30
0.0
 10
-0.1185979645787786
 20
0.5534883337998989
 30
0.0
 10
-0.1225096255
 20
0.5526199006
 30
0.0
  0
LINE
  5
D0
330
1F
100
AcDbEntity
  8
0
  6
Continuous
 62
     7
370
    25
100
AcDbLine
 10
-0.1225096255
 20
0.5526199006
 30
0.0
 11
-0.1157434485
 21
0.5223298327
 31
0.0
  0
SPLINE
  5
D1
330
1F
100
AcDbEntity
  8
0
  6
Continuous
 62
     7
370
    25
100
AcDbSpline
210
0.0
220
0.0
230
1.0
 70
     8
 71
     3
 72
     8
 73
     4
 74
     0
 42
0.000000001
 43
0.00000001
 40
0.0
 40
0.0
 40
0.0
 40
0.0
 40
1.0
 40
1.0
 40
1.0
 40
1.0
 10
-0.1157434485
 20
0.5223298327
 30
0.0
 10
-0.1192929152022072
 20
0.5215433037861201
 30
0.0
 10
-0.1228343643641224
 20
0.5207205932866936
 30
0.0
 10
-0.1263670601
 20
0.5198618721
 30
0.0
  0
LINE
  5
D2
330
1F
100
AcDbEntity
  8
0
  6
Continuous
 62
     7
370
    25
100
AcDbLine
 10
-0.1263670601
 20
0.5198618721
 30
0.0
 11
-0.1337153672
 21
0.5500157833
 31
0.0
  0
SPLINE
  5
D3
330
1F
100
AcDbEntity
  8
0
  6
Continuous
 62
     7
370
    25
100
AcDbSpline
210
0.0
220
0.0
230
1.0
 70
     8
 71
     3
 72
     8
 73
     4
 74
     0
 42
0.000000001
 43
0.00000001
 40
0.0
 40
0.0
 40
0.0
 40
0.0
 40
1.0
 40
1.0
 40
1.0
 40
1.0
 10
-0.1337153672
 20
0.5500157833
 30
0.0
 10
-0.1379897657550765
 20
0.5489767281610921
 30
0.0
 10
-0.1422519420658657
 20
0.5478874228086752
 30
0.0
 10
-0.1465009916
 20
0.5467491439
 30
0.0
  0
LINE
  5
D4
330
1F
100
AcDbEntity
  8
0
  6
Continuous
 62
     7
370
    25
100
AcDbLine
 10
-0.1465009916
 20
0.5467491439
 30
0.0
 11
-0.1488209509
 21
0.5554073501
 31
0.0
  0
SPLINE
  5
D5
330
1F
100
AcDbEntity
  8
0
  6
Continuous
 62
     7
370
    25
100
AcDbSpline
210
0.0
220
0.0
230
1.0
 70
     8
 71
     3
 72
     8
 73
     4
 74
     0
 42
0.000000001
 43
0.00000001
 40
0.0
 40
0.0
 40
0.0
 40
0.0
 40
1.0
 40
1.0
 40
1.0
 40
1.0
 10
-0.1488209509
 20
0.5554073501
 30
0.0
 10
-0.1330510878884275
 20
0.5596333226247744
 30
0.0
 10
-0.1171011812549047
 20
0.5631878691037258
 30
0.0
 10
-0.1010286142
 20
0.5660549336
 30
0.0
  0
LINE
  5
D6
330
1F
100
AcDbEntity
  8
0
  6
Continuous
 62
     7
370
    25
100
AcDbLine
 10
-0.1010286142
 20
0.5660549336
 30
0.0
 11
-0.0984531813
 21
0.5517182324
 31
0.0
  0
SPLINE
  5
D7
330
1F
100
AcDbEntity
  8
0
  6
Continuous
 62
     7
370
    25
100
AcDbSpline
210
0.0
220
0.0
230
1.0
 70
     8
 71
     3
 72
     8
 73
     4
 74
     0
 42
0.000000001
 43
0.00000001
 40
0.0
 40
0.0
 40
0.0
 40
0.0
 40
1.0
 40
1.0
 40
1.0
 40
1.0
 10
-0.0984531813
 20
0.5517182324
 30
0.0
 10
-0.0935047911148216
 20
0.5526015175953917
 30
0.0
 10
-0.0885444566830565
 20
0.5534178882251656
 30
0.0
 10
-0.0835740359
 20
0.5541673369
 30
0.0
  0
CIRCLE
  5
D8
330
1F
100
AcDbEntity
  8
0
  6
Continuous
 62
     7
370
    25
100
AcDbCircle
 10
0.0
 20
0.0
 30
0.0
 40
0.5899999999999997
  0
CIRCLE
  5
D9
330
1F
100
AcDbEntity
  8
0
  6
Continuous
 62
     7
370
    25
100
AcDbCircle
 10
0.0
 20
0.0
 30
0.0
 40
0.4994999999999999
  0
SPLINE
  5
DA
330
1F
100
AcDbEntity
  8
0
  6
Continuous
 62
     7
370
    25
100
AcDbSpline
210
0.0
220
0.0
230
1.0
 70
     8
 71
     3
 72
     9
 73
     5
 74
     0
 42
0.000000001
 43
0.00000001
 40
0.0
 40
0.0
 40
0.0
 40
0.0
 40
0.366225159235487
 40
1.0
 40
1.0
 40
1.0
 40
1.0
 10
-0.052211932602223
 20
0.5726245619913538
 30
0.0
 10
-0.0481552703037331
 20
0.5730021891720455
 30
0.0
 10
-0.0364807582597142
 20
0.5720461610215533
 30
0.0
 10
-0.0295935725364412
 20
0.5612507983653576
 30
0.0
 10
-0.0289927531646699
 20
0.5542269099469074
 30
0.0
  0
SPLINE
  5
DB
330
1F
100
AcDbEntity
  8
0
  6
Continuous
 62
     7
370
    25
100
AcDbSpline
210
0.0
220
0.0
230
1.0
 70
     8
 71
     3
 72
     8
 73
     4
 74
     0
 42
0.000000001
 43
0.00000001
 40
0.0
 40
0.0
 40
0.0
 40
0.0
 40
0.0622140447401211
 40
0.0622140447401211
 40
0.0622140447401211
 40
0.0622140447401211
 10
-0.0289927531646699
 20
0.5542269099469074
 30
0.0
 10
-0.0290013992178256
 20
0.5535601063854346
 30
0.0
 10
-0.0290100452709812
 20
0.5528933028239619
 30
0.0
 10
-0.0290390814629057
 20
0.5522281272263874
 30
0.0
  0
SPLINE
  5
DC
330
1F
100
AcDbEntity
  8
0
  6
Continuous
 62
     7
370
    25
100
AcDbSpline
210
0.0
220
0.0
230
1.0
 70
     8
 71
     3
 72
     9
 73
     5
 74
     0
 42
0.000000001
 43
0.00000001
 40
0.0619722478057053
 40
0.0619722478057053
 40
0.0619722478057053
 40
0.0619722478057053
 40
0.5383165494682572
 40
0.8226206101433403
 40
0.8226206101433403
 40
0.8226206101433403
 40
0.8226206101433403
 10
-0.0290390813927339
 20
0.5522281272233242
 30
0.0
 10
-0.0293859604182564
 20
0.547102963504107
 30
0.0
 10
-0.0327252247244342
 20
0.538977761539424
 30
0.0
 10
-0.0399477999537324
 20
0.5349262226683694
 30
0.0
 10
-0.0428552941361822
 20
0.5339633566480176
 30
0.0
  0
SPLINE
  5
DD
330
1F
100
AcDbEntity
  8
0
  6
Continuous
 62
     7
370
    25
100
AcDbSpline
210
0.0
220
0.0
230
1.0
 70
     8
 71
     3
 72
     8
 73
     4
 74
     0
 42
0.000000001
 43
0.00000001
 40
0.8227489693977371
 40
0.8227489693977371
 40
0.8227489693977371
 40
0.8227489693977371
 40
1.0
 40
1.0
 40
1.0
 40
1.0
 10
-0.0428552941875005
 20
0.5339633568246817
 30
0.0
 10
-0.0446720065938817
 20
0.533435629433157
 30
0.0
 10
-0.0465654525878788
 20
0.5331182347370017
 30
0.0
 10
-0.0484588985818758
 20
0.5328008400408463
 30
0.0
  0
SPLINE
  5
DE
330
1F
100
AcDbEntity
  8
0
  6
Continuous
 62
     7
370
    25
100
AcDbSpline
210
0.0
220
0.0
230
1.0
 70
     8
 71
     3
 72
     9
 73
     5
 74
     0
 42
0.000000001
 43
0.00000001
 40
0.0
 40
0.0
 40
0.0
 40
0.0
 40
0.5139585769898782
 40
1.0
 40
1.0
 40
1.0
 40
1.0
 10
-0.0484588985818758
 20
0.5328008400408463
 30
0.0
 10
-0.0539622878662066
 20
0.5323100139211902
 30
0.0
 10
-0.0653652175109645
 20
0.5348583184361829
 30
0.0
 10
-0.0707204694189222
 20
0.5452392069930693
 30
0.0
 10
-0.0715281001657941
 20
0.5504054959196047
 30
0.0
  0
SPLINE
  5
DF
330
1F
100
AcDbEntity
  8
0
  6
Continuous
 62
     7
370
    25
100
AcDbSpline
210
0.0
220
0.0
230
1.0
 70
     8
 71
     3
 72
    10
 73
     6
 74
     0
 42
0.000000001
 43
0.00000001
 40
0.0
 40
0.0
 40
0.0
 40
0.0
 40
0.1187802900718768
 40
0.5260871111078845
 40
1.0
 40
1.0
 40
1.0
 40
1.0
 10
-0.0715281001657941
 20
0.5504054959196047
 30
0.0
 10
-0.0716701930736296
 20
0.5517124273423081
 30
0.0
 10
-0.07150317626942
 20
0.5575358570304648
 30
0.0
 10
-0.0676269180760133
 20
0.5685787166514406
 30
0.0
 10
-0.0574286778323737
 20
0.572139166619366
 30
0.0
 10
-0.052211932602223
 20
0.5726245619913538
 30
0.0
  0
SPLINE
  5
E0
330
1F
100
AcDbEntity
  8
0
  6
Continuous
 62
     7
370
    25
100
AcDbSpline
210
0.0
220
0.0
230
1.0
 70
     8
 71
     3
 72
    23
 73
    19
 74
     0
 42
0.000000001
 43
0.00000001
 40
0.0
 40
0.0
 40
0.0
 40
0.0
 40
0.0907150206382753
 40
0.1755621161988224
 40
0.2547400609062113
 40
0.3282267572140458
 40
0.3965021331444671
 40
0.4600190910750003
 40
0.5190030978713227
 40
0.5742855047417751
 40
0.6265681845544901
 40
0.6774614353697661
 40
0.7274861682118756
 40
0.7779699588155259
 40
0.8297462192114818
 40
0.883450632876442
 40
0.9398932266522553
 40
0.9999999999999999
 40
0.9999999999999999
 40
0.9999999999999999
 40
0.9999999999999999
 10
-0.0450770066402566
 20
-0.5528884896084768
 30
0.0
 10
-0.0451769867458194
 20
-0.5537440501193928
 30
0.0
 10
-0.0453704797174011
 20
-0.5553998289835294
 30
0.0
 10
-0.0457839877567191
 20
-0.5577839332222915
 30
0.0
 10
-0.0462754657003028
 20
-0.5599857971765275
 30
0.0
 10
-0.0468614633078659
 20
-0.5620013135906619
 30
0.0
 10
-0.0475209279234954
 20
-0.5638368724273299
 30
0.0
 10
-0.0482684794953844
 20
-0.5654892521544971
 30
0.0
 10
-0.0491083032706318
 20
-0.5669565338066056
 30
0.0
 10
-0.0500350073602767
 20
-0.5682418484830276
 30
0.0
 10
-0.051057841804145
 20
-0.5693504141913287
 30
0.0
 10
-0.0521788964846722
 20
-0.570284223788941
 30
0.0
 10
-0.0534042917382315
 20
-0.5710441947084495
 30
0.0
 10
-0.0547288106568019
 20
-0.5716348895265365
 30
0.0
 10
-0.0561562745478862
 20
-0.5720462161949695
 30
0.0
 10
-0.0576791633527849
 20
-0.5722769870546023
 30
0.0
 10
-0.0592980199012952
 20
-0.5723543628575727
 30
0.0
 10
-0.0604017690820676
 20
-0.5722630916099681
 30
0.0
 10
-0.0609709939820288
 20
-0.5722160212540466
 30
0.0
  0
SPLINE
  5
E1
330
1F
100
AcDbEntity
  8
0
  6
Continuous
 62
     7
370
    25
100
AcDbSpline
210
0.0
220
0.0
230
1.0
 70
     8
 71
     3
 72
    23
 73
    19
 74
     0
 42
0.000000001
 43
0.00000001
 40
0.0
 40
0.0
 40
0.0
 40
0.0
 40
0.0608097107980653
 40
0.1181213889609118
 40
0.1721289932444424
 40
0.2241906749994494
 40
0.2749545737400158
 40
0.3257268630185864
 40
0.3767160622038415
 40
0.4297022890652994
 40
0.4854291948144426
 40
0.544581611112263
 40
0.6080632926736672
 40
0.6760345234557413
 40
0.7488426494748315
 40
0.8270486466903169
 40
0.9106046006250413
 40
1.0
 40
1.0
 40
1.0
 40
1.0
 10
-0.0609709939820288
 20
-0.5722160212540466
 30
0.0
 10
-0.0615431745615438
 20
-0.572142527332402
 30
0.0
 10
-0.062654621465365
 20
-0.5719997671713865
 30
0.0
 10
-0.0642320123355305
 20
-0.5715685307846972
 30
0.0
 10
-0.0656845567400813
 20
-0.5710229332882228
 30
0.0
 10
-0.0669895007641729
 20
-0.5703019225595949
 30
0.0
 10
-0.0681705226540734
 20
-0.5694434804692621
 30
0.0
 10
-0.0692000794495929
 20
-0.5684219251973026
 30
0.0
 10
-0.0701010357500624
 20
-0.567259352489232
 30
0.0
 10
-0.0708505699108517
 20
-0.5659396295256753
 30
0.0
 10
-0.0714762992711146
 20
-0.5644739340845875
 30
0.0
 10
-0.071971158191737
 20
-0.5628549657990625
 30
0.0
 10
-0.0723465879335089
 20
-0.5610862937449378
 30
0.0
 10
-0.0726035698390667
 20
-0.5591662264242971
 30
0.0
 10
-0.0727424330827543
 20
-0.5570943946134282
 30
0.0
 10
-0.0727602146826168
 20
-0.5548708019199594
 30
0.0
 10
-0.0726685653575966
 20
-0.5524913060216519
 30
0.0
 10
-0.072509109835161
 20
-0.5508598987977292
 30
0.0
 10
-0.0724266901845604
 20
-0.5500166541654389
 30
0.0
  0
SPLINE
  5
E2
330
1F
100
AcDbEntity
  8
0
  6
Continuous
 62
     7
370
    25
100
AcDbSpline
210
0.0
220
0.0
230
1.0
 70
     8
 71
     3
 72
    23
 73
    19
 74
     0
 42
0.000000001
 43
0.00000001
 40
0.0
 40
0.0
 40
0.0
 40
0.0
 40
0.0915391330306575
 40
0.1771722846224177
 40
0.2565885030490264
 40
0.3303116127117297
 40
0.3989149565220473
 40
0.4621533569002957
 40
0.5211131235748994
 40
0.5759245633181551
 40
0.6279825303589152
 40
0.6785020674396135
 40
0.7285971210197472
 40
0.7786937135002285
 40
0.830104954101844
 40
0.8837872973515375
 40
0.940195079678564
 40
1.0
 40
1.0
 40
1.0
 40
1.0
 10
-0.0724266901845604
 20
-0.5500166541654389
 30
0.0
 10
-0.0723232256690986
 20
-0.5491533117284128
 30
0.0
 10
-0.0721229720292091
 20
-0.5474823285443342
 30
0.0
 10
-0.0717142249760398
 20
-0.5450786255717247
 30
0.0
 10
-0.0712193772776785
 20
-0.5428642848283327
 30
0.0
 10
-0.0706361118994332
 20
-0.5408391003384535
 30
0.0
 10
-0.0699689716361029
 20
-0.5390022603273099
 30
0.0
 10
-0.069216814931777
 20
-0.5373514168536662
 30
0.0
 10
-0.0683846714706464
 20
-0.5358868815171495
 30
0.0
 10
-0.0674494920020561
 20
-0.5346153922969465
 30
0.0
 10
-0.06643259999102
 20
-0.5335143940348535
 30
0.0
 10
-0.0653048828178903
 20
-0.5325947903718372
 30
0.0
 10
-0.0640785024993536
 20
-0.5318490147533943
 30
0.0
 10
-0.0627591198673239
 20
-0.5312610936119081
 30
0.0
 10
-0.0613357525421999
 20
-0.5308607997691309
 30
0.0
 10
-0.0598169877939934
 20
-0.5306250622700661
 30
0.0
 10
-0.0582001223041239
 20
-0.5305616345663283
 30
0.0
 10
-0.057099236388379
 20
-0.5306510297283792
 30
0.0
 10
-0.0565327028427883
 20
-0.5306970339122744
 30
0.0
  0
SPLINE
  5
E3
330
1F
100
AcDbEntity
  8
0
  6
Continuous
 62
     7
370
    25
100
AcDbSpline
210
0.0
220
0.0
230
1.0
 70
     8
 71
     3
 72
    23
 73
    19
 74
     0
 42
0.000000001
 43
0.00000001
 40
0.0
 40
0.0
 40
0.0
 40
0.0
 40
0.0607695396901606
 40
0.1179724134672958
 40
0.1719443401383061
 40
0.2240830103337135
 40
0.2744246183867827
 40
0.3247746761761393
 40
0.3755103761737912
 40
0.4279802954361524
 40
0.4831597147427431
 40
0.5420908989717783
 40
0.6052587850568911
 40
0.6734606873574109
 40
0.7464981729958838
 40
0.8252087024898248
 40
0.909832461583899
 40
1.0
 40
1.0
 40
1.0
 40
1.0
 10
-0.0565327028427883
 20
-0.5306970339122744
 30
0.0
 10
-0.0559608198164527
 20
-0.5307715408552127
 30
0.0
 10
-0.054850618534992
 20
-0.5309161818040062
 30
0.0
 10
-0.0532697915361258
 20
-0.5313332794662508
 30
0.0
 10
-0.0518204079607135
 20
-0.5318869424295194
 30
0.0
 10
-0.050508141710032
 20
-0.5325891273265905
 30
0.0
 10
-0.0493360939310368
 20
-0.5334491715513536
 30
0.0
 10
-0.0483006176332284
 20
-0.5344505817878289
 30
0.0
 10
-0.0474057061836788
 20
-0.5356052804093775
 30
0.0
 10
-0.0466522002291837
 20
-0.5369091323944929
 30
0.0
 10
-0.0460280151170071
 20
-0.5383634214270278
 30
0.0
 10
-0.0455222529972071
 20
-0.5399693831589497
 30
0.0
 10
-0.0451483531186722
 20
-0.5417370532923109
 30
0.0
 10
-0.0448921733304469
 20
-0.5436598204777893
 30
0.0
 10
-0.0447537272381845
 20
-0.5457421701694299
 30
0.0
 10
-0.0447332088339325
 20
-0.5479844378646265
 30
0.0
 10
-0.04483763474498
 20
-0.5503872177434689
 30
0.0
 10
-0.0449955465353779
 20
-0.552037287472912
 30
0.0
 10
-0.0450770066402566
 20
-0.5528884896084768
 30
0.0
  0
LINE
  5
E4
330
1F
100
AcDbEntity
  8
0
  6
Continuous
 62
     7
370
    25
100
AcDbLine
 10
0.0050582679
 20
-0.5387547406
 30
0.0
 11
-0.0030429979
 21
-0.5388813229
 31
0.0
  0
LINE
  5
E5
330
1F
100
AcDbEntity
  8
0
  6
Continuous
 62
     7
370
    25
100
AcDbLine
 10
-0.0030429979
 20
-0.5388813229
 30
0.0
 11
-0.0031062891
 21
-0.53483069
 31
0.0
  0
LINE
  5
E6
330
1F
100
AcDbEntity
  8
0
  6
Continuous
 62
     7
370
    25
100
AcDbLine
 10
-0.0031062891
 20
-0.53483069
 30
0.0
 11
0.0181595337
 21
-0.5344984115
 31
0.0
  0
LINE
  5
E7
330
1F
100
AcDbEntity
  8
0
  6
Continuous
 62
     7
370
    25
100
AcDbLine
 10
0.0181595337
 20
-0.5344984115
 30
0.0
 11
0.0182228249
 21
-0.5385490444
 31
0.0
  0
LINE
  5
E8
330
1F
100
AcDbEntity
  8
0
  6
Continuous
 62
     7
370
    25
100
AcDbLine
 10
0.0182228249
 20
-0.5385490444
 30
0.0
 11
0.010121559
 21
-0.5386756267
 31
0.0
  0
LINE
  5
E9
330
1F
100
AcDbEntity
  8
0
  6
Continuous
 62
     7
370
    25
100
AcDbLine
 10
0.010121559
 20
-0.5386756267
 30
0.0
 11
0.0105408628
 21
-0.5655110697
 31
0.0
  0
LINE
  5
EA
330
1F
100
AcDbEntity
  8
0
  6
Continuous
 62
     7
370
    25
100
AcDbLine
 10
0.0105408628
 20
-0.5655110697
 30
0.0
 11
0.0186421287
 21
-0.5653844875
 31
0.0
  0
LINE
  5
EB
330
1F
100
AcDbEntity
  8
0
  6
Continuous
 62
     7
370
    25
100
AcDbLine
 10
0.0186421287
 20
-0.5653844875
 30
0.0
 11
0.0186975084
 21
-0.5689287913
 31
0.0
  0
SPLINE
  5
EC
330
1F
100
AcDbEntity
  8
0
  6
Continuous
 62
     7
370
    25
100
AcDbSpline
210
0.0
220
0.0
230
1.0
 70
     8
 71
     3
 72
    13
 73
     9
 74
     0
 42
0.000000001
 43
0.00000001
 40
0.0
 40
0.0
 40
0.0
 40
0.0
 40
0.2609157237065752
 40
0.5433219468390345
 40
0.6802037624809867
 40
0.8018852018427584
 40
0.9084162337962953
 40
1.0
 40
1.0
 40
1.0
 40
1.0
 10
0.0186975084169396
 20
-0.568928791261121
 30
0.0
 10
0.0181296695638349
 20
-0.5689507212481039
 30
0.0
 10
0.0169472214277975
 20
-0.5689963875002273
 30
0.0
 10
0.0154808097327477
 20
-0.5692117876051381
 30
0.0
 10
0.0143200975654654
 20
-0.56941469466052
 30
0.0
 10
0.013553772292352
 20
-0.5696258194436479
 30
0.0
 10
0.0128898506683258
 20
-0.5698414873074826
 30
0.0
 10
0.01250619324587
 20
-0.5700396958190178
 30
0.0
 10
0.0123288375308637
 20
-0.5701313229066907
 30
0.0
  0
SPLINE
  5
ED
330
1F
100
AcDbEntity
  8
0
  6
Continuous
 62
     7
370
    25
100
AcDbSpline
210
0.0
220
0.0
230
1.0
 70
     8
 71
     3
 72
    15
 73
    11
 74
     0
 42
0.000000001
 43
0.00000001
 40
0.0
 40
0.0
 40
0.0
 40
0.0
 40
0.1221281296459276
 40
0.2391407977679033
 40
0.3545303907694654
 40
0.467998586574549
 40
0.5842518592501318
 40
0.7107059247736327
 40
0.8477349577682678
 40
1.0
 40
1.0
 40
1.0
 40
1.0
 10
0.0123288375308637
 20
-0.5701313229066907
 30
0.0
 10
0.0121389955190051
 20
-0.57024874483283
 30
0.0
 10
0.0117672632219712
 20
-0.5704786703477279
 30
0.0
 10
0.0112605986660205
 20
-0.5708858078459526
 30
0.0
 10
0.0108275521092267
 20
-0.5713479078114155
 30
0.0
 10
0.0104455090737198
 20
-0.5718511915099589
 30
0.0
 10
0.0101348288620012
 20
-0.57242702109142
 30
0.0
 10
0.009922184465653
 20
-0.5730899457320956
 30
0.0
 10
0.0097680910860018
 20
-0.5738354424349617
 30
0.0
 10
0.0097301410199937
 20
-0.5743630953778796
 30
0.0
 10
0.0097101666447877
 20
-0.5746408165775767
 30
0.0
  0
LINE
  5
EE
330
1F
100
AcDbEntity
  8
0
  6
Continuous
 62
     7
370
    25
100
AcDbLine
 10
0.0097101666
 20
-0.5746408166
 30
0.0
 11
0.0056199768
 21
-0.5747041077
 31
0.0
  0
LINE
  5
EF
330
1F
100
AcDbEntity
  8
0
  6
Continuous
 62
     7
370
    25
100
AcDbLine
 10
0.0056199768
 20
-0.5747041077
 30
0.0
 11
0.0050582679
 21
-0.5387547406
 31
0.0
  0
SPLINE
  5
F0
330
1F
100
AcDbEntity
  8
0
  6
Continuous
 62
     7
370
    25
100
AcDbSpline
210
0.0
220
0.0
230
1.0
 70
     8
 71
     3
 72
    15
 73
    11
 74
     0
 42
0.000000001
 43
0.00000001
 40
0.0
 40
0.0
 40
0.0
 40
0.0
 40
0.0928539547988631
 40
0.2030328666385644
 40
0.3312506623953476
 40
0.4760389511174706
 40
0.6238563961198457
 40
0.7604348882430335
 40
0.8857849775504725
 40
1.0
 40
1.0
 40
1.0
 40
1.0
 10
0.0974637860597634
 20
-0.5496630747051724
 30
0.0
 10
0.097139435911344
 20
-0.5496469482267207
 30
0.0
 10
0.0964302174341031
 20
-0.5496116863452432
 30
0.0
 10
0.095272722188623
 20
-0.5495612630286791
 30
0.0
 10
0.0939327413235871
 20
-0.5495340058456617
 30
0.0
 10
0.0924611205786732
 20
-0.5495132111780525
 30
0.0
 10
0.0909601660617124
 20
-0.5494883934539905
 30
0.0
 10
0.0895282774091617
 20
-0.5494293360434133
 30
0.0
 10
0.0882141509660693
 20
-0.549364639044818
 30
0.0
 10
0.0873792421229083
 20
-0.5492935067252472
 30
0.0
 10
0.0869811911230545
 20
-0.5492595936925143
 30
0.0
  0
SPLINE
  5
F1
330
1F
100
AcDbEntity
  8
0
  6
Continuous
 62
     7
370
    25
100
AcDbSpline
210
0.0
220
0.0
230
1.0
 70
     8
 71
     3
 72
    23
 73
    19
 74
     0
 42
0.000000001
 43
0.00000001
 40
0.0
 40
0.0
 40
0.0
 40
0.0
 40
0.0747096939635726
 40
0.1461941131551119
 40
0.2143310496070738
 40
0.2787678390398596
 40
0.341275776973908
 40
0.4006967882254932
 40
0.4581525518682359
 40
0.5139478006148543
 40
0.5690268032428085
 40
0.6244128358408703
 40
0.6808175645126935
 40
0.7391780490052905
 40
0.7995474257396085
 40
0.862988010071117
 40
0.9293536815620141
 40
1.0
 40
1.0
 40
1.0
 40
1.0
 10
0.0869811911230545
 20
-0.5492595936925142
 30
0.0
 10
0.0866089367996642
 20
-0.5492125070732471
 30
0.0
 10
0.0858804986574502
 20
-0.5491203666001705
 30
0.0
 10
0.0848196107224588
 20
-0.54893443964952
 30
0.0
 10
0.0838236032668196
 20
-0.5486897825167193
 30
0.0
 10
0.0828891242990019
 20
-0.5483935209569378
 30
0.0
 10
0.0820146587369436
 20
-0.548058288727788
 30
0.0
 10
0.0811995452293547
 20
-0.5476712567367682
 30
0.0
 10
0.080456932896307
 20
-0.5472219138769105
 30
0.0
 10
0.079758985970403
 20
-0.5467431597746018
 30
0.0
 10
0.0791287463075007
 20
-0.5461922804419734
 30
0.0
 10
0.0785635877138607
 20
-0.5455711116289009
 30
0.0
 10
0.0780633019503202
 20
-0.5448761530270179
 30
0.0
 10
0.0776230524914056
 20
-0.5441137194705026
 30
0.0
 10
0.0772269329652418
 20
-0.5432871488472681
 30
0.0
 10
0.0769204425301543
 20
-0.5423810976190148
 30
0.0
 10
0.0766527700912393
 20
-0.541409737255867
 30
0.0
 10
0.076530167262723
 20
-0.5407323083015074
 30
0.0
 10
0.0764669506167254
 20
-0.5403830114140332
 30
0.0
  0
SPLINE
  5
F2
330
1F
100
AcDbEntity
  8
0
  6
Continuous
 62
     7
370
    25
100
AcDbSpline
210
0.0
220
0.0
230
1.0
 70
     8
 71
     3
 72
    15
 73
    11
 74
     0
 42
0.000000001
 43
0.00000001
 40
0.0
 40
0.0
 40
0.0
 40
0.0
 40
0.1202473968081459
 40
0.2415066286291228
 40
0.364610203147097
 40
0.4916015076228398
 40
0.6201019324879117
 40
0.7465233099769453
 40
0.8730899569656089
 40
1.0
 40
1.0
 40
1.0
 40
1.0
 10
0.0764669506167254
 20
-0.5403830114140332
 30
0.0
 10
0.0764181707766515
 20
-0.5399907477750803
 30
0.0
 10
0.076320200633147
 20
-0.5392029197514225
 30
0.0
 10
0.0763407898029124
 20
-0.5380012912469884
 30
0.0
 10
0.0765062779422977
 20
-0.536791163497991
 30
0.0
 10
0.0767861126357269
 20
-0.535577617657265
 30
0.0
 10
0.0772023783840665
 20
-0.5343912687433475
 30
0.0
 10
0.0777465717262654
 20
-0.5332608749588384
 30
0.0
 10
0.0783970666291783
 20
-0.5321915053029082
 30
0.0
 10
0.0789297023456793
 20
-0.5315504781777872
 30
0.0
 10
0.0791963809964722
 20
-0.5312295304013749
 30
0.0
  0
SPLINE
  5
F3
330
1F
100
AcDbEntity
  8
0
  6
Continuous
 62
     7
370
    25
100
AcDbSpline
210
0.0
220
0.0
230
1.0
 70
     8
 71
     3
 72
    15
 73
    11
 74
     0
 42
0.000000001
 43
0.00000001
 40
0.0
 40
0.0
 40
0.0
 40
0.0
 40
0.1093267554029145
 40
0.2204359716496238
 40
0.3335626213162495
 40
0.4503256755791879
 40
0.5733292851656003
 40
0.705047997321995
 40
0.8470452113117245
 40
1.0
 40
1.0
 40
1.0
 40
1.0
 10
0.0791963809964722
 20
-0.5312295304013749
 30
0.0
 10
0.0795136604349068
 20
-0.5308923702693393
 30
0.0
 10
0.0801533922282634
 20
-0.530212552954421
 30
0.0
 10
0.0812522380517237
 20
-0.5293226203914779
 30
0.0
 10
0.0824235889368641
 20
-0.5284791514927393
 30
0.0
 10
0.0837190401823002
 20
-0.5277321905407364
 30
0.0
 10
0.0851463952296312
 20
-0.5270696181209786
 30
0.0
 10
0.0867315176520565
 20
-0.5265125363475531
 30
0.0
 10
0.0884762412986436
 20
-0.5260414017485172
 30
0.0
 10
0.0897058752461665
 20
-0.5258266531755272
 30
0.0
 10
0.0903435328952064
 20
-0.5257152898950458
 30
0.0
  0
SPLINE
  5
F4
330
1F
100
AcDbEntity
  8
0
  6
Continuous
 62
     7
370
    25
100
AcDbSpline
210
0.0
220
0.0
230
1.0
 70
     8
 71
     3
 72
    15
 73
    11
 74
     0
 42
0.000000001
 43
0.00000001
 40
0.0
 40
0.0
 40
0.0
 40
0.0
 40
0.1379952618640311
 40
0.2695176387483965
 40
0.3943833712926483
 40
0.513061117306446
 40
0.6305947808719244
 40
0.7509306155590316
 40
0.8738453801369079
 40
1.0
 40
1.0
 40
1.0
 40
1.0
 10
0.0903435328952064
 20
-0.5257152898950458
 30
0.0
 10
0.0910362467918233
 20
-0.5256159051701208
 30
0.0
 10
0.0923891817493174
 20
-0.5254217975172376
 30
0.0
 10
0.0943831813725419
 20
-0.5252564055610971
 30
0.0
 10
0.0962854192404956
 20
-0.5252027253561884
 30
0.0
 10
0.0981157569777885
 20
-0.5252804537789066
 30
0.0
 10
0.0999164060932067
 20
-0.5254486129528061
 30
0.0
 10
0.1017275221654165
 20
-0.525710925561446
 30
0.0
 10
0.1035671939269605
 20
-0.5260673167575675
 30
0.0
 10
0.1047935707547453
 20
-0.5263692974934961
 30
0.0
 10
0.105414735426852
 20
-0.5265222519203623
 30
0.0
  0
LINE
  5
F5
330
1F
100
AcDbEntity
  8
0
  6
Continuous
 62
     7
370
    25
100
AcDbLine
 10
0.1054147354
 20
-0.5265222519
 30
0.0
 11
0.1064432164
 21
-0.5330254165
 31
0.0
  0
LINE
  5
F6
330
1F
100
AcDbEntity
  8
0
  6
Continuous
 62
     7
370
    25
100
AcDbLine
 10
0.1064432164
 20
-0.5330254165
 30
0.0
 11
0.106071381
 21
-0.5330807962
 31
0.0
  0
SPLINE
  5
F7
330
1F
100
AcDbEntity
  8
0
  6
Continuous
 62
     7
370
    25
100
AcDbSpline
210
0.0
220
0.0
230
1.0
 70
     8
 71
     3
 72
    15
 73
    11
 74
     0
 42
0.000000001
 43
0.00000001
 40
0.0
 40
0.0
 40
0.0
 40
0.0
 40
0.1253736160591234
 40
0.2518085811635919
 40
0.3802894270375683
 40
0.5126289950954672
 40
0.643298680459205
 40
0.7673749736402375
 40
0.8861465680029246
 40
1.0
 40
1.0
 40
1.0
 40
1.0
 10
0.1060713809964722
 20
-0.5330807962241597
 30
0.0
 10
0.1055024767275143
 20
-0.532767723208253
 30
0.0
 10
0.104359852136415
 20
-0.5321389268600735
 30
0.0
 10
0.1025247427853399
 20
-0.5314166603039813
 30
0.0
 10
0.1006094685579958
 20
-0.5308206768476945
 30
0.0
 10
0.0986230150790577
 20
-0.5304104235917199
 30
0.0
 10
0.0966379607236194
 20
-0.530131544290234
 30
0.0
 10
0.094707416131499
 20
-0.530011717186753
 30
0.0
 10
0.0928580332788341
 20
-0.5300373626008855
 30
0.0
 10
0.0916637897798999
 20
-0.530195066876049
 30
0.0
 10
0.0910792923888773
 20
-0.5302722519203623
 30
0.0
  0
SPLINE
  5
F8
330
1F
100
AcDbEntity
  8
0
  6
Continuous
 62
     7
370
    25
100
AcDbSpline
210
0.0
220
0.0
230
1.0
 70
     8
 71
     3
 72
    23
 73
    19
 74
     0
 42
0.000000001
 43
0.00000001
 40
0.0
 40
0.0
 40
0.0
 40
0.0
 40
0.0851542474176055
 40
0.1661511513485053
 40
0.2424322762758865
 40
0.3149740119368564
 40
0.383843172832556
 40
0.4489950305269556
 40
0.5115042334640704
 40
0.5717320097584107
 40
0.6293887699127145
 40
0.6842960669708658
 40
0.7373032896655537
 40
0.7890318624487512
 40
0.8401153803573445
 40
0.8915862788274982
 40
0.9448046264311534
 40
1.0
 40
1.0
 40
1.0
 40
1.0
 10
0.0910792923888773
 20
-0.5302722519203623
 30
0.0
 10
0.0906879571465005
 20
-0.5303383087905228
 30
0.0
 10
0.0899243921681702
 20
-0.5304671975466858
 30
0.0
 10
0.0888275988557119
 20
-0.5307410118846428
 30
0.0
 10
0.087801412359676
 20
-0.5310474607198211
 30
0.0
 10
0.0868485193302273
 20
-0.5313986724967352
 30
0.0
 10
0.0859795482447799
 20
-0.5318141158670393
 30
0.0
 10
0.085178453231396
 20
-0.5322604945638729
 30
0.0
 10
0.0844674644339233
 20
-0.5327734130392476
 30
0.0
 10
0.0838218793818181
 20
-0.5333136589062305
 30
0.0
 10
0.0832701396920012
 20
-0.5339019055546143
 30
0.0
 10
0.0827940869467104
 20
-0.5345111961797662
 30
0.0
 10
0.0824228069244243
 20
-0.5351580595211813
 30
0.0
 10
0.0821319039000954
 20
-0.5358252271870536
 30
0.0
 10
0.0819424544840048
 20
-0.5365212163565352
 30
0.0
 10
0.0818401068441152
 20
-0.5372409637675537
 30
0.0
 10
0.0818194284376839
 20
-0.5379884766501178
 30
0.0
 10
0.0818846794969997
 20
-0.5384900123494194
 30
0.0
 10
0.081917899983814
 20
-0.538745353186185
 30
0.0
  0
SPLINE
  5
F9
330
1F
100
AcDbEntity
  8
0
  6
Continuous
 62
     7
370
    25
100
AcDbSpline
210
0.0
220
0.0
230
1.0
 70
     8
 71
     3
 72
    19
 73
    15
 74
     0
 42
0.000000001
 43
0.00000001
 40
0.0
 40
0.0
 40
0.0
 40
0.0
 40
0.0743683371552148
 40
0.144056622694949
 40
0.209008707550137
 40
0.2706605729488988
 40
0.3287554837555094
 40
0.3835221303116905
 40
0.4370375304036958
 40
0.4895119136630858
 40
0.5976587478592077
 40
0.7177525681020562
 40
0.8505749089565747
 40
0.9999999999999999
 40
0.9999999999999999
 40
0.9999999999999999
 40
0.9999999999999999
 10
0.081917899983814
 20
-0.538745353186185
 30
0.0
 10
0.081958079650503
 20
-0.5389593618387967
 30
0.0
 10
0.0820359104492761
 20
-0.5393739114294162
 30
0.0
 10
0.0821817333708259
 20
-0.5399688225396276
 30
0.0
 10
0.0823718033187512
 20
-0.5405124474695724
 30
0.0
 10
0.0826042635835732
 20
-0.5410013381220807
 30
0.0
 10
0.0828533855210196
 20
-0.5414481939069292
 30
0.0
 10
0.0831416910693029
 20
-0.5418426872350592
 30
0.0
 10
0.0834679500471598
 20
-0.5421835400177318
 30
0.0
 10
0.0839531183265487
 20
-0.5425832906756801
 30
0.0
 10
0.0846787914310618
 20
-0.5429805532689391
 30
0.0
 10
0.0856638495003984
 20
-0.5433693183775459
 30
0.0
 10
0.0868118371343618
 20
-0.5436497588692416
 30
0.0
 10
0.0876312468152978
 20
-0.5437588183522084
 30
0.0
 10
0.0880650518825482
 20
-0.5438165557178306
 30
0.0
  0
SPLINE
  5
FA
330
1F
100
AcDbEntity
  8
0
  6
Continuous
 62
     7
370
    25
100
AcDbSpline
210
0.0
220
0.0
230
1.0
 70
     8
 71
     3
 72
    11
 73
     7
 74
     0
 42
0.000000001
 43
0.00000001
 40
0.0
 40
0.0
 40
0.0
 40
0.0
 40
0.2269815313893664
 40
0.4683178259944364
 40
0.7262080757045649
 40
1.0
 40
1.0
 40
1.0
 40
1.0
 10
0.0880650518825482
 20
-0.5438165557178306
 30
0.0
 10
0.088784527803847
 20
-0.543878935862158
 30
0.0
 10
0.0902689807338082
 20
-0.5440076411951326
 30
0.0
 10
0.0925800078669684
 20
-0.5440163643523844
 30
0.0
 10
0.0950383397822856
 20
-0.544013557733482
 30
0.0
 10
0.0967281202978115
 20
-0.5440819630367164
 30
0.0
 10
0.0975982797306495
 20
-0.544117188629223
 30
0.0
  0
SPLINE
  5
FB
330
1F
100
AcDbEntity
  8
0
  6
Continuous
 62
     7
370
    25
100
AcDbSpline
210
0.0
220
0.0
230
1.0
 70
     8
 71
     3
 72
    23
 73
    19
 74
     0
 42
0.000000001
 43
0.00000001
 40
0.0
 40
0.0
 40
0.0
 40
0.0
 40
0.0789567974108078
 40
0.1540519510204564
 40
0.2251991532240263
 40
0.2925132043338889
 40
0.3565955166993511
 40
0.4177352238158915
 40
0.4761739930342254
 40
0.5332989320131477
 40
0.5894104052731062
 40
0.6444050709009942
 40
0.7001912115166593
 40
0.7564291333274197
 40
0.8141628398416862
 40
0.873496877356076
 40
0.9356894760119142
 40
1.0
 40
1.0
 40
1.0
 40
1.0
 10
0.0975982797306495
 20
-0.544117188629223
 30
0.0
 10
0.0980390244787787
 20
-0.5441500928823759
 30
0.0
 10
0.0988989578927197
 20
-0.5442142920971528
 30
0.0
 10
0.1001503007667126
 20
-0.5443751795062965
 30
0.0
 10
0.1013216880348341
 20
-0.5446168426677559
 30
0.0
 10
0.1024196759466941
 20
-0.5449028248313756
 30
0.0
 10
0.1034351918104623
 20
-0.545268266874517
 30
0.0
 10
0.1043707769228219
 20
-0.5456965160020815
 30
0.0
 10
0.1052359152647883
 20
-0.5461790647231233
 30
0.0
 10
0.1060208146721864
 20
-0.5467363714685258
 30
0.0
 10
0.106734819050865
 20
-0.5473526715269352
 30
0.0
 10
0.1073752222579413
 20
-0.5480347872205336
 30
0.0
 10
0.1079473034246792
 20
-0.5487766814998066
 30
0.0
 10
0.1084358981727021
 20
-0.549593287953746
 30
0.0
 10
0.1088689512532342
 20
-0.5504630562747628
 30
0.0
 10
0.1092119133192236
 20
-0.5514074146950121
 30
0.0
 10
0.1095029021589576
 20
-0.5524076801727971
 30
0.0
 10
0.1096248782257091
 20
-0.5531056933665477
 30
0.0
 10
0.1096868873255862
 20
-0.5534605430596028
 30
0.0
  0
SPLINE
  5
FC
330
1F
100
AcDbEntity
  8
0
  6
Continuous
 62
     7
370
    25
100
AcDbSpline
210
0.0
220
0.0
230
1.0
 70
     8
 71
     3
 72
    23
 73
    19
 74
     0
 42
0.000000001
 43
0.00000001
 40
0.0
 40
0.0
 40
0.0
 40
0.0
 40
0.0586465157063764
 40
0.1151339603062829
 40
0.1706336200014655
 40
0.2255252858203459
 40
0.2807317927921207
 40
0.3374388438363666
 40
0.3961971065024624
 40
0.4578300147797401
 40
0.5209157052111112
 40
0.5844094390542104
 40
0.6485189851315322
 40
0.7141864371606081
 40
0.7817691681445684
 40
0.8516939695082053
 40
0.9243463694098791
 40
1.0
 40
1.0
 40
1.0
 40
1.0
 10
0.1096868873255862
 20
-0.5534605430596028
 30
0.0
 10
0.1097381820653533
 20
-0.5538738402223791
 30
0.0
 10
0.1098388831293659
 20
-0.5546852190154863
 30
0.0
 10
0.1098321795178195
 20
-0.5559002680761245
 30
0.0
 10
0.1096699332982512
 20
-0.5570760541480515
 30
0.0
 10
0.1093782958532228
 20
-0.5582173633054515
 30
0.0
 10
0.1089367791221426
 20
-0.5593193616953276
 30
0.0
 10
0.1083517359507799
 20
-0.560382368430832
 30
0.0
 10
0.1076377260634386
 20
-0.5614198044965508
 30
0.0
 10
0.106773940526508
 20
-0.5623973156194364
 30
0.0
 10
0.1058063130416607
 20
-0.5633203815587369
 30
0.0
 10
0.1047414766368251
 20
-0.5641581596433242
 30
0.0
 10
0.1035976251878206
 20
-0.5649183868088602
 30
0.0
 10
0.1023564729723794
 20
-0.5655715974489302
 30
0.0
 10
0.1010311622005256
 20
-0.5661429271046668
 30
0.0
 10
0.0996178710500663
 20
-0.5666227295315237
 30
0.0
 10
0.0981203564651778
 20
-0.5670246353815821
 30
0.0
 10
0.0970830996760854
 20
-0.5672053715409666
 30
0.0
 10
0.0965539759331811
 20
-0.5672975683760585
 30
0.0
  0
SPLINE
  5
FD
330
1F
100
AcDbEntity
  8
0
  6
Continuous
 62
     7
370
    25
100
AcDbSpline
210
0.0
220
0.0
230
1.0
 70
     8
 71
     3
 72
    15
 73
    11
 74
     0
 42
0.000000001
 43
0.00000001
 40
0.0
 40
0.0
 40
0.0
 40
0.0
 40
0.1439472003573847
 40
0.2821308111007618
 40
0.4155485589977091
 40
0.5435542737118658
 40
0.6664862190801828
 40
0.7828360033575679
 40
0.8944567491324733
 40
0.9999999999999999
 40
0.9999999999999999
 40
0.9999999999999999
 40
0.9999999999999999
 10
0.0965539759331811
 20
-0.5672975683760585
 30
0.0
 10
0.0958666298039274
 20
-0.5673979897491257
 30
0.0
 10
0.0945194586156593
 20
-0.567594811662751
 30
0.0
 10
0.0925191785984651
 20
-0.5677468490529164
 30
0.0
 10
0.0905910526989314
 20
-0.5678026913033244
 30
0.0
 10
0.0887371521760875
 20
-0.5677249665755163
 30
0.0
 10
0.0869718024151973
 20
-0.5675664339396693
 30
0.0
 10
0.085293365812474
 20
-0.5673435230304984
 30
0.0
 10
0.0837070019848057
 20
-0.567068164626606
 30
0.0
 10
0.0826893734447246
 20
-0.5668179221710441
 30
0.0
 10
0.0821947987179912
 20
-0.5666963025532736
 30
0.0
  0
LINE
  5
FE
330
1F
100
AcDbEntity
  8
0
  6
Continuous
 62
     7
370
    25
100
AcDbLine
 10
0.0821947987
 20
-0.5666963026
 30
0.0
 11
0.0811979633
 21
-0.5603830114
 31
0.0
  0
LINE
  5
FF
330
1F
100
AcDbEntity
  8
0
  6
Continuous
 62
     7
370
    25
100
AcDbLine
 10
0.0811979633
 20
-0.5603830114
 30
0.0
 11
0.0815697987
 21
-0.5603276317
 31
0.0
  0
SPLINE
  5
100
330
1F
100
AcDbEntity
  8
0
  6
Continuous
 62
     7
370
    25
100
AcDbSpline
210
0.0
220
0.0
230
1.0
 70
     8
 71
     3
 72
    15
 73
    11
 74
     0
 42
0.000000001
 43
0.00000001
 40
0.0
 40
0.0
 40
0.0
 40
0.0
 40
0.1058118687497112
 40
0.2190853397472625
 40
0.3399524658890483
 40
0.4698260763370748
 40
0.6033629855648742
 40
0.7357529814112279
 40
0.8674748143868444
 40
1.0
 40
1.0
 40
1.0
 40
1.0
 10
0.0815697987179912
 20
-0.5603276316671977
 30
0.0
 10
0.0820206878211798
 20
-0.5605862503710709
 30
0.0
 10
0.0829542616586675
 20
-0.5611217249569805
 30
0.0
 10
0.0845093369354469
 20
-0.5617385140601323
 30
0.0
 10
0.0862182583222621
 20
-0.5622626354163347
 30
0.0
 10
0.0880629681608622
 20
-0.5626622444033622
 30
0.0
 10
0.0899867685401033
 20
-0.562946030667188
 30
0.0
 10
0.0919378671517257
 20
-0.5630402177371746
 30
0.0
 10
0.093886921985536
 20
-0.5629974696560434
 30
0.0
 10
0.0951731481779837
 20
-0.5628264008112707
 30
0.0
 10
0.0958182164395102
 20
-0.562740606350742
 30
0.0
  0
SPLINE
  5
101
330
1F
100
AcDbEntity
  8
0
  6
Continuous
 62
     7
370
    25
100
AcDbSpline
210
0.0
220
0.0
230
1.0
 70
     8
 71
     3
 72
    23
 73
    19
 74
     0
 42
0.000000001
 43
0.00000001
 40
0.0
 40
0.0
 40
0.0
 40
0.0
 40
0.0815929222184508
 40
0.1598834988050416
 40
0.2336701793741928
 40
0.3051917652646847
 40
0.3730986592147523
 40
0.4392551688616753
 40
0.502968245231602
 40
0.5650950560027864
 40
0.6253479511816556
 40
0.682134431392459
 40
0.7364382041417755
 40
0.7895216710150695
 40
0.8410723874611729
 40
0.8929251974493179
 40
0.9454023886646163
 40
0.9999999999999999
 40
0.9999999999999999
 40
0.9999999999999999
 40
0.9999999999999999
 10
0.0958182164395102
 20
-0.562740606350742
 30
0.0
 10
0.0961620362888909
 20
-0.562682145366988
 30
0.0
 10
0.0968357604181778
 20
-0.5625675895161611
 30
0.0
 10
0.0978036951751617
 20
-0.5623188482630187
 30
0.0
 10
0.0987157479820443
 20
-0.5620332611251229
 30
0.0
 10
0.0995667254779482
 20
-0.5617057471269432
 30
0.0
 10
0.1003590943610411
 20
-0.561323811102636
 30
0.0
 10
0.1010840795050397
 20
-0.5608878726830577
 30
0.0
 10
0.1017546478868296
 20
-0.5604135764960652
 30
0.0
 10
0.1023559809736213
 20
-0.5598914238231475
 30
0.0
 10
0.1028837496370275
 20
-0.5593348323913
 30
0.0
 10
0.1033284253528962
 20
-0.5587523301210329
 30
0.0
 10
0.103705059392803
 20
-0.5581577326639782
 30
0.0
 10
0.1039666167895108
 20
-0.5575287008350099
 30
0.0
 10
0.1041654523276699
 20
-0.556888756845949
 30
0.0
 10
0.1042655261417612
 20
-0.5562281450512977
 30
0.0
 10
0.1042851387299095
 20
-0.555546845952222
 30
0.0
 10
0.104226354942656
 20
-0.5550925206871974
 30
0.0
 10
0.1041963809964723
 20
-0.554860859515299
 30
0.0
  0
SPLINE
  5
102
330
1F
100
AcDbEntity
  8
0
  6
Continuous
 62
     7
370
    25
100
AcDbSpline
210
0.0
220
0.0
230
1.0
 70
     8
 71
     3
 72
    19
 73
    15
 74
     0
 42
0.000000001
 43
0.00000001
 40
0.0
 40
0.0
 40
0.0
 40
0.0
 40
0.127831534036419
 40
0.2438196916233679
 40
0.3509962622496707
 40
0.4545751604019625
 40
0.5076151710501239
 40
0.5637890865675977
 40
0.6244745548597772
 40
0.6894295813701502
 40
0.7590550521012992
 40
0.8338426183579883
 40
0.9137248534357795
 40
1.0
 40
1.0
 40
1.0
 40
1.0
 10
0.1041963809964723
 20
-0.554860859515299
 30
0.0
 10
0.1041188531632772
 20
-0.5544674444752397
 30
0.0
 10
0.1039709803201298
 20
-0.5537170636363465
 30
0.0
 10
0.1035674540631252
 20
-0.5526858503349189
 30
0.0
 10
0.1030107194105758
 20
-0.5518199447723192
 30
0.0
 10
0.1024326770258882
 20
-0.5512195254255894
 30
0.0
 10
0.1018909496920277
 20
-0.5508286912219256
 30
0.0
 10
0.1014270103449785
 20
-0.550565611799397
 30
0.0
 10
0.1009034347331017
 20
-0.5503392852315078
 30
0.0
 10
0.1003239567915122
 20
-0.5501412856003765
 30
0.0
 10
0.0996879670159517
 20
-0.5499794718844238
 30
0.0
 10
0.099000368484462
 20
-0.5498327167539003
 30
0.0
 10
0.0982512832859025
 20
-0.5497349445817652
 30
0.0
 10
0.097732932984238
 20
-0.5496876380377217
 30
0.0
 10
0.0974637860597634
 20
-0.5496630747051724
 30
0.0
  0
MTEXT
  5
104
330
1F
100
AcDbEntity
  8
0
  6
Continuous
 62
     7
100
AcDbMText
 10
-0.59
 20
-0.6301404091
 30
0.0
 40
0.1903
 41
0.0
 71
     1
 72
     1
  1
SOLIDWORKS Educational Product.
  7
SLDTEXTSTYLE0
 73
     1
 44
1.0
  0
MTEXT
  5
105
330
1F
100
AcDbEntity
  8
0
  6
Continuous
 62
     7
100
AcDbMText
 10
-0.59
 20
-0.9155904091
 30
0.0
 40
0.1903
 41
0.0
 71
     1
 72
     1
  1
For Instructional Use Only.
  7
SLDTEXTSTYLE0
 73
     1
 44
1.0
  0
ENDSEC
  0
SECTION
  2
OBJECTS
  0
DICTIONARY
  5
C
330
0
100
AcDbDictionary
281
     1
  3
ACAD_GROUP
350
D
  3
ACAD_LAYOUT
350
1A
  3
ACAD_MLINESTYLE
350
17
  3
ACAD_PLOTSETTINGS
350
19
  3
ACAD_PLOTSTYLENAME
350
E
  3
ACAD_SCALELIST
350
47
  0
DICTIONARY
  5
D
102
{ACAD_REACTORS
330
C
102
}
330
C
100
AcDbDictionary
281
     1
  0
DICTIONARY
  5
1A
102
{ACAD_REACTORS
330
C
102
}
330
C
100
AcDbDictionary
281
     1
  3
Layout1
350
1E
  3
Layout2
350
26
  3
Model
350
22
  0
DICTIONARY
  5
17
102
{ACAD_REACTORS
330
C
102
}
330
C
100
AcDbDictionary
281
     1
  3
Standard
350
18
  0
DICTIONARY
  5
19
102
{ACAD_REACTORS
330
C
102
}
330
C
100
AcDbDictionary
281
     1
  0
ACDBDICTIONARYWDFLT
  5
E
102
{ACAD_REACTORS
330
C
102
}
330
C
100
AcDbDictionary
281
     1
  3
Normal
350
F
100
AcDbDictionaryWithDefault
340
F
  0
DICTIONARY
  5
47
102
{ACAD_REACTORS
330
C
102
}
330
C
100
AcDbDictionary
281
     1
  3
A0
350
48
  3
A1
350
49
  3
A2
350
4A
  3
A3
350
4B
  3
A4
350
4C
  3
A5
350
4D
  3
A6
350
4E
  3
A7
350
4F
  3
A8
350
50
  3
A9
350
51
  3
B0
350
52
  3
B1
350
53
  3
B2
350
54
  3
B3
350
55
  3
B4
350
56
  3
B5
350
57
  3
B6
350
58
  3
B7
350
59
  3
B8
350
5A
  3
B9
350
5B
  3
C0
350
5C
  3
C1
350
5D
  3
C2
350
5E
  3
C3
350
5F
  3
C4
350
60
  3
C5
350
61
  3
C6
350
62
  3
C7
350
63
  3
C8
350
64
  3
C9
350
65
  3
D0
350
66
  3
D1
350
67
  3
D2
350
68
  0
LAYOUT
  5
1E
102
{ACAD_REACTORS
330
1A
102
}
330
1A
100
AcDbPlotSettings
  1

  2
none_device
  4

  6

 40
0.0
 41
0.0
 42
0.0
 43
0.0
 44
0.0
 45
0.0
 46
0.0
 47
0.0
 48
0.0
 49
0.0
140
0.0
141
0.0
142
1.0
143
1.0
 70
   688
 72
     0
 73
     0
 74
     5
  7

 75
    16
147
1.0
148
0.0
149
0.0
100
AcDbLayout
  1
Layout1
 70
     1
 71
     1
 10
0.0
 20
0.0
 11
12.0
 21
9.0
 12
0.0
 22
0.0
 32
0.0
 14
1.0000000000E+20
 24
1.0000000000E+20
 34
1.0000000000E+20
 15
-1.0000000000E+20
 25
-1.0000000000E+20
 35
-1.0000000000E+20
146
0.0
 13
0.0
 23
0.0
 33
0.0
 16
1.0
 26
0.0
 36
0.0
 17
0.0
 27
1.0
 37
0.0
 76
     0
330
1B
  0
LAYOUT
  5
26
102
{ACAD_REACTORS
330
1A
102
}
330
1A
100
AcDbPlotSettings
  1

  2
none_device
  4

  6

 40
0.0
 41
0.0
 42
0.0
 43
0.0
 44
0.0
 45
0.0
 46
0.0
 47
0.0
 48
0.0
 49
0.0
140
0.0
141
0.0
142
1.0
143
1.0
 70
   688
 72
     0
 73
     0
 74
     5
  7

 75
    16
147
1.0
148
0.0
149
0.0
100
AcDbLayout
  1
Layout2
 70
     1
 71
     2
 10
0.0
 20
0.0
 11
0.0
 21
0.0
 12
0.0
 22
0.0
 32
0.0
 14
0.0
 24
0.0
 34
0.0
 15
0.0
 25
0.0
 35
0.0
146
0.0
 13
0.0
 23
0.0
 33
0.0
 16
1.0
 26
0.0
 36
0.0
 17
0.0
 27
1.0
 37
0.0
 76
     0
330
23
  0
LAYOUT
  5
22
102
{ACAD_REACTORS
330
1A
102
}
330
1A
100
AcDbPlotSettings
  1

  2
none_device
  4
ANSI_A_(11.00_x_8.50_Inches)
  6

 40
6.35
 41
19.05
 42
6.35000508
 43
19.05000254
 44
279.4
 45
215.9
 46
133.34999746
 47
88.89999873
 48
0.0
 49
0.0
140
0.0
141
0.0
142
7.1313559322
143
1.0
 70
  1696
 72
     0
 73
     0
 74
     0
  7

 75
     0
147
0.5913241897
148
-39.4088153714
149
0.0
100
AcDbLayout
  1
Model
 70
     1
 71
     0
 10
0.0
 20
0.0
 11
12.0
 21
9.0
 12
0.0
 22
0.0
 32
0.0
 14
-0.59
 24
-0.59
 34
0.0
 15
0.59
 25
0.59
 35
0.0
146
0.0
 13
0.0
 23
0.0
 33
0.0
 16
1.0
 26
0.0
 36
0.0
 17
0.0
 27
1.0
 37
0.0
 76
     0
330
1F
331
29
  0
MLINESTYLE
  5
18
102
{ACAD_REACTORS
330
17
102
}
330
17
100
AcDbMlineStyle
  2
Standard
 70
     0
  3

 62
   256
 51
90.0
 52
90.0
 71
     2
 49
0.5
 62
   256
  6
BYLAYER
 49
-0.5
 62
   256
  6
BYLAYER
  0
ACDBPLACEHOLDER
  5
F
102
{ACAD_REACTORS
330
E
102
}
330
E
  0
SCALE
  5
48
102
{ACAD_REACTORS
330
47
102
}
330
47
100
AcDbScale
 70
     0
300
1:1
140
1.0
141
1.0
290
     1
  0
SCALE
  5
49
102
{ACAD_REACTORS
330
47
102
}
330
47
100
AcDbScale
 70
     0
300
1:2
140
1.0
141
2.0
290
     0
  0
SCALE
  5
4A
102
{ACAD_REACTORS
330
47
102
}
330
47
100
AcDbScale
 70
     0
300
1:4
140
1.0
141
4.0
290
     0
  0
SCALE
  5
4B
102
{ACAD_REACTORS
330
47
102
}
330
47
100
AcDbScale
 70
     0
300
1:5
140
1.0
141
5.0
290
     0
  0
SCALE
  5
4C
102
{ACAD_REACTORS
330
47
102
}
330
47
100
AcDbScale
 70
     0
300
1:8
140
1.0
141
8.0
290
     0
  0
SCALE
  5
4D
102
{ACAD_REACTORS
330
47
102
}
330
47
100
AcDbScale
 70
     0
300
1:10
140
1.0
141
10.0
290
     0
  0
SCALE
  5
4E
102
{ACAD_REACTORS
330
47
102
}
330
47
100
AcDbScale
 70
     0
300
1:16
140
1.0
141
16.0
290
     0
  0
SCALE
  5
4F
102
{ACAD_REACTORS
330
47
102
}
330
47
100
AcDbScale
 70
     0
300
1:20
140
1.0
141
20.0
290
     0
  0
SCALE
  5
50
102
{ACAD_REACTORS
330
47
102
}
330
47
100
AcDbScale
 70
     0
300
1:30
140
1.0
141
30.0
290
     0
  0
SCALE
  5
51
102
{ACAD_REACTORS
330
47
102
}
330
47
100
AcDbScale
 70
     0
300
1:40
140
1.0
141
40.0
290
     0
  0
SCALE
  5
52
102
{ACAD_REACTORS
330
47
102
}
330
47
100
AcDbScale
 70
     0
300
1:50
140
1.0
141
50.0
290
     0
  0
SCALE
  5
53
102
{ACAD_REACTORS
330
47
102
}
330
47
100
AcDbScale
 70
     0
300
1:100
140
1.0
141
100.0
290
     0
  0
SCALE
  5
54
102
{ACAD_REACTORS
330
47
102
}
330
47
100
AcDbScale
 70
     0
300
2:1
140
2.0
141
1.0
290
     0
  0
SCALE
  5
55
102
{ACAD_REACTORS
330
47
102
}
330
47
100
AcDbScale
 70
     0
300
4:1
140
4.0
141
1.0
290
     0
  0
SCALE
  5
56
102
{ACAD_REACTORS
330
47
102
}
330
47
100
AcDbScale
 70
     0
300
8:1
140
8.0
141
1.0
290
     0
  0
SCALE
  5
57
102
{ACAD_REACTORS
330
47
102
}
330
47
100
AcDbScale
 70
     0
300
10:1
140
10.0
141
1.0
290
     0
  0
SCALE
  5
58
102
{ACAD_REACTORS
330
47
102
}
330
47
100
AcDbScale
 70
     0
300
100:1
140
100.0
141
1.0
290
     0
  0
SCALE
  5
59
102
{ACAD_REACTORS
330
47
102
}
330
47
100
AcDbScale
 70
     0
300
1/128" = 1'-0"
140
0.0078125
141
12.0
290
     0
  0
SCALE
  5
5A
102
{ACAD_REACTORS
330
47
102
}
330
47
100
AcDbScale
 70
     0
300
1/64" = 1'-0"
140
0.015625
141
12.0
290
     0
  0
SCALE
  5
5B
102
{ACAD_REACTORS
330
47
102
}
330
47
100
AcDbScale
 70
     0
300
1/32" = 1'-0"
140
0.03125
141
12.0
290
     0
  0
SCALE
  5
5C
102
{ACAD_REACTORS
330
47
102
}
330
47
100
AcDbScale
 70
     0
300
1/16" = 1'-0"
140
0.0625
141
12.0
290
     0
  0
SCALE
  5
5D
102
{ACAD_REACTORS
330
47
102
}
330
47
100
AcDbScale
 70
     0
300
3/32" = 1'-0"
140
0.09375
141
12.0
290
     0
  0
SCALE
  5
5E
102
{ACAD_REACTORS
330
47
102
}
330
47
100
AcDbScale
 70
     0
300
1/8" = 1'-0"
140
0.125
141
12.0
290
     0
  0
SCALE
  5
5F
102
{ACAD_REACTORS
330
47
102
}
330
47
100
AcDbScale
 70
     0
300
3/16" = 1'-0"
140
0.1875
141
12.0
290
     0
  0
SCALE
  5
60
102
{ACAD_REACTORS
330
47
102
}
330
47
100
AcDbScale
 70
     0
300
1/4" = 1'-0"
140
0.25
141
12.0
290
     0
  0
SCALE
  5
61
102
{ACAD_REACTORS
330
47
102
}
330
47
100
AcDbScale
 70
     0
300
3/8" = 1'-0"
140
0.375
141
12.0
290
     0
  0
SCALE
  5
62
102
{ACAD_REACTORS
330
47
102
}
330
47
100
AcDbScale
 70
     0
300
1/2" = 1'-0"
140
0.5
141
12.0
290
     0
  0
SCALE
  5
63
102
{ACAD_REACTORS
330
47
102
}
330
47
100
AcDbScale
 70
     0
300
3/4" = 1'-0"
140
0.75
141
12.0
290
     0
  0
SCALE
  5
64
102
{ACAD_REACTORS
330
47
102
}
330
47
100
AcDbScale
 70
     0
300
1" = 1'-0"
140
1.0
141
12.0
290
     0
  0
SCALE
  5
65
102
{ACAD_REACTORS
330
47
102
}
330
47
100
AcDbScale
 70
     0
300
1-1/2" = 1'-0"
140
1.5
141
12.0
290
     0
  0
SCALE
  5
66
102
{ACAD_REACTORS
330
47
102
}
330
47
100
AcDbScale
 70
     0
300
3" = 1'-0"
140
3.0
141
12.0
290
     0
  0
SCALE
  5
67
102
{ACAD_REACTORS
330
47
102
}
330
47
100
AcDbScale
 70
     0
300
6" = 1'-0"
140
6.0
141
12.0
290
     0
  0
SCALE
  5
68
102
{ACAD_REACTORS
330
47
102
}
330
47
100
AcDbScale
 70
     0
300
1'-0" = 1'-0"
140
12.0
141
12.0
290
     0
  0
ENDSEC
  0
EOF
